<svg width="48" height="48" viewBox="0 0 48 48" fill="none" xmlns="http://www.w3.org/2000/svg">
<g clip-path="url(#clip0_4447_2206)">
<path d="M23.9993 -0.0157471C10.884 -0.0157471 0.191659 10.56 0.00228373 23.6306C-0.189716 36.9064 10.5803 47.9059 23.8572 47.9831C27.9574 48.0067 31.9065 47.0036 35.4135 45.0982C35.4927 45.055 35.5603 44.9933 35.6106 44.9184C35.6609 44.8435 35.6924 44.7576 35.7026 44.668C35.7127 44.5783 35.7012 44.4876 35.6689 44.4033C35.6366 44.3191 35.5845 44.2439 35.517 44.184L33.2719 42.1931C32.8159 41.7881 32.1656 41.6737 31.6043 41.913C29.1563 42.9544 26.496 43.4861 23.7555 43.4527C13.0275 43.3211 4.35978 34.3954 4.53078 23.6674C4.69953 13.0759 13.3684 4.51088 23.9993 4.51088H43.4708V39.1215L32.4233 29.3055C32.0663 28.9875 31.518 29.0501 31.23 29.4311C29.457 31.7794 26.5684 33.2392 23.3599 33.0176C18.9094 32.7101 15.3038 29.1277 14.9697 24.6791C14.5714 19.3721 18.7759 14.9276 24.0004 14.9276C28.7246 14.9276 32.6153 18.564 33.0214 23.1844C33.0551 23.5955 33.2451 23.978 33.5524 24.2531L36.4294 26.8035C36.7556 27.0922 37.2743 26.916 37.3538 26.4866C37.5611 25.3777 37.6343 24.2212 37.5525 23.0355C37.0886 16.278 31.6159 10.8428 24.8558 10.4261C17.1057 9.948 10.626 16.0114 10.4205 23.6115C10.2199 31.0177 16.2882 37.4025 23.6952 37.566C26.6631 37.6356 29.5713 36.7257 31.9703 34.977L46.4048 47.7727C47.0239 48.321 48.0004 47.8822 48.0004 47.0546V0.896253C48 0.654566 47.9038 0.422903 47.7328 0.252075C47.5618 0.0812474 47.3301 -0.0147988 47.0884 -0.0149971L23.9993 -0.0157471Z" fill="#003DFF"/>
</g>
<defs>
<clipPath id="clip0_4447_2206">
<rect width="48" height="48" fill="white"/>
</clipPath>
</defs>
</svg>
