<svg width="42" height="48" viewBox="0 0 42 48" fill="none" xmlns="http://www.w3.org/2000/svg">
<path d="M0.284912 0.375L4.05554 42.7061L20.9748 47.4236L37.9413 42.6889L41.7149 0.375H0.284912ZM33.8815 10.0733L32.6264 24.1751L32.6302 24.2513L32.6249 24.4264V24.4249L31.7332 34.2851L31.6349 35.1611L20.9999 38.1026L20.9917 38.1101L10.375 35.1521L9.65616 27H14.8623L15.2317 31.1453L21.0014 32.709L20.9999 32.712V32.7113L26.791 31.1254L27.403 24.375H15.2969L15.193 23.2339L14.9564 20.5605L14.8323 19.125H27.8632L28.3372 13.875H8.48991L8.38604 12.7346L8.14979 10.0605L8.02529 8.625H34.0057L33.8815 10.0733Z" fill="#1572B6"/>
</svg>
