<svg width="60" height="60" viewBox="0 0 60 60" fill="none" xmlns="http://www.w3.org/2000/svg">
<g filter="url(#filter0_f_6428_76)">
<path d="M34.921 7.012L35.059 7.03L35.2 7.054L35.272 7.069L35.341 7.084L35.41 7.105L35.482 7.126L35.623 7.174L35.692 7.204L35.764 7.234L35.899 7.294L35.968 7.324L36.1 7.396L36.232 7.474L36.421 7.603L36.601 7.747L36.715 7.849L36.823 7.957L36.874 8.017L36.904 8.053L36.934 8.092L36.964 8.128L36.994 8.17L37.024 8.206L37.084 8.284L37.114 8.326L37.144 8.365L37.195 8.446L37.249 8.536L37.297 8.626L37.345 8.722L37.369 8.773L37.414 8.881L37.435 8.941L37.465 9.001L37.486 9.061L37.51 9.121L37.531 9.19L37.555 9.259L37.576 9.328L37.624 9.478L37.648 9.556L37.672 9.64L37.702 9.73L37.891 10.435L37.921 10.555L37.963 10.717L38.002 10.882L38.074 11.221L38.104 11.395L38.14 11.566L38.17 11.746L38.224 12.106L38.254 12.286L38.278 12.475L38.299 12.661L38.32 12.853L38.338 13.045L38.356 13.24L38.371 13.435L38.383 13.636L38.398 13.837L38.428 14.455L38.44 15.316L38.431 15.985L38.413 16.444L38.407 16.678L38.392 16.912L38.38 17.152L38.35 17.632L38.329 17.878L38.311 18.124L38.233 18.964L38.227 19.042L38.218 19.12L38.212 19.201L38.2 19.357L38.188 19.507L38.182 19.579L38.173 19.723L38.167 19.789L38.164 19.858V19.927L38.158 19.987L38.155 20.053V20.173L38.146 20.284V20.335L38.143 20.389L38.137 20.485V20.575V20.614V20.689L38.134 20.749L38.137 20.779V20.803V20.827V20.845V20.86V20.875L38.14 20.884L38.143 20.89H38.146H38.152L38.161 20.893H38.362L38.401 20.89H38.443H38.488H38.536L38.638 20.884L38.749 20.878L38.809 20.875H38.935L39.073 20.863H39.145L39.214 20.857L39.289 20.851L39.367 20.845L39.448 20.839H39.529L39.607 20.833L39.691 20.827L39.781 20.818L39.871 20.812H39.955L40.135 20.8L40.225 20.791L40.411 20.776L40.501 20.767L40.921 20.737L41.332 20.707L41.74 20.683L42.532 20.653L42.922 20.644L43.3 20.638H43.675H44.041L44.401 20.644L44.752 20.653L45.433 20.683L45.763 20.707L46.084 20.731L46.399 20.761L46.708 20.791L47.008 20.827L47.299 20.866L47.581 20.911L47.86 20.959L48.124 21.01L48.385 21.07L48.634 21.13L48.874 21.19L49.108 21.256L49.333 21.328L49.549 21.4L49.759 21.478L49.96 21.559L50.149 21.643L50.329 21.733L50.503 21.823L50.665 21.919L50.815 22.018L50.965 22.123L51.1 22.228L51.226 22.336L51.34 22.45L51.448 22.57L51.49 22.621L51.571 22.72L51.607 22.768L51.643 22.819L51.673 22.87L51.703 22.918L51.763 23.008L51.793 23.059L51.868 23.2L51.892 23.248L51.913 23.293L51.931 23.344L51.979 23.485L52.009 23.584L52.027 23.683L52.036 23.731L52.042 23.785L52.048 23.833V23.884L52.054 23.992V24.046L52.048 24.154L52.045 24.214L52.039 24.274L52.036 24.334L52.018 24.454L52.006 24.514L51.994 24.58L51.985 24.64L51.961 24.745L51.931 24.85L51.895 24.958L51.856 25.066L51.811 25.177L51.76 25.291L51.706 25.402L51.646 25.522L51.58 25.636L51.508 25.756L51.433 25.876L51.355 25.996L51.175 26.236L50.983 26.482L50.875 26.602L50.77 26.728L50.416 27.1L50.29 27.229L50.026 27.481L49.888 27.61L49.6 27.862L49.45 27.991L49.141 28.243L48.982 28.372L48.817 28.492L48.307 28.867L48.127 28.987L47.761 29.227L47.575 29.347L47.386 29.467L47.272 29.539L47.152 29.611L47.026 29.686L46.9 29.764L46.765 29.842L46.627 29.92L46.339 30.082L46.189 30.172L46.039 30.253L45.889 30.337L45.739 30.427L45.43 30.595L45.274 30.676L45.124 30.76L44.968 30.841L44.668 31L44.518 31.078L44.368 31.153L44.224 31.228L43.948 31.366L43.69 31.492L43.564 31.552L43.45 31.612L43.339 31.663L43.234 31.714L43.138 31.759L43.048 31.798L42.967 31.828L42.889 31.858L42.829 31.888L42.769 31.906L42.718 31.924L42.682 31.933L42.652 31.939L42.637 31.933L42.625 31.921L42.613 31.903L42.604 31.879L42.595 31.849L42.589 31.819L42.586 31.78L42.58 31.738V31.693L42.583 31.642V31.582L42.586 31.528L42.592 31.468L42.595 31.408L42.61 31.276L42.619 31.21L42.649 31L42.661 30.928L42.691 30.787L42.706 30.715L42.736 30.58L42.754 30.514L42.769 30.448L42.79 30.388L42.805 30.328L42.826 30.268L42.847 30.214L42.883 30.118L42.901 30.073L42.922 30.034L42.943 29.998L42.961 29.968L42.982 29.938L43 29.92L43.018 29.905L43.048 29.893L43.078 29.878L43.093 29.866L43.114 29.854L43.132 29.845L43.153 29.836L43.177 29.824L43.225 29.794L43.279 29.77L43.309 29.752L43.339 29.74L43.399 29.704L43.495 29.656L43.561 29.62L43.63 29.581L43.702 29.545L43.813 29.485L43.849 29.464L43.924 29.425L43.963 29.404L44.038 29.365L44.08 29.347L44.116 29.326L44.155 29.308L44.194 29.287L44.233 29.269L44.644 29.059L44.845 28.951L45.046 28.837L45.244 28.729L45.439 28.621L45.631 28.51L46.009 28.285L46.189 28.177L46.549 27.952L46.723 27.838L46.894 27.73L47.065 27.616L47.23 27.505L47.392 27.391L47.551 27.283L47.707 27.172L48.007 26.95L48.148 26.845L48.286 26.734L48.421 26.626L48.553 26.518L48.805 26.308L48.925 26.203L49.147 25.999L49.348 25.798L49.528 25.603L49.612 25.507L49.693 25.417L49.765 25.327L49.834 25.237L49.894 25.147L50.002 24.973L50.044 24.889L50.086 24.799L50.122 24.718L50.152 24.637L50.176 24.556L50.194 24.478L50.206 24.4L50.212 24.322V24.172L50.203 24.097L50.188 24.025L50.167 23.959L50.143 23.89L50.113 23.821L50.077 23.755L50.035 23.695L49.939 23.569L49.819 23.449L49.675 23.335L49.597 23.281L49.513 23.227L49.333 23.125L49.129 23.026L49.018 22.981L48.898 22.936L48.778 22.894L48.652 22.852L48.523 22.81L48.385 22.768L48.244 22.729L48.094 22.693L47.944 22.663L47.788 22.633L47.647 22.603L47.497 22.573L47.338 22.549L47.164 22.531L46.984 22.507L46.795 22.489L46.6 22.471L46.399 22.456L46.189 22.441L45.973 22.426L45.751 22.414L45.295 22.396L45.055 22.387L44.815 22.381H44.575L44.074 22.375L43.825 22.378H43.57L42.799 22.387L42.544 22.396L42.286 22.405L42.028 22.411L41.776 22.426L41.521 22.435L41.269 22.453L41.023 22.468L40.774 22.486L40.534 22.501L40.063 22.543L39.835 22.564L39.61 22.588L39.394 22.612L38.974 22.672L38.779 22.702L37.753 22.858L37.333 25.207L36.895 27.556L38.935 29.938L39.247 30.313L39.556 30.682L39.856 31.042L40.15 31.402L40.435 31.762L40.714 32.116L40.984 32.464L41.248 32.809L41.509 33.148L41.761 33.487L42.007 33.817L42.247 34.147L42.481 34.477L42.706 34.798L42.925 35.119L43.345 35.749L43.546 36.058L43.741 36.364L43.927 36.664L44.107 36.964L44.281 37.258L44.449 37.552L44.611 37.837L44.767 38.125L44.917 38.41L45.061 38.689L45.196 38.965L45.325 39.235L45.451 39.505L45.571 39.775L45.682 40.039L45.79 40.309L45.889 40.567L45.985 40.825L46.075 41.083L46.159 41.335L46.234 41.584L46.303 41.833L46.348 41.989L46.384 42.139L46.426 42.289L46.456 42.433L46.486 42.571L46.516 42.706L46.546 42.838L46.57 42.97L46.594 43.09L46.612 43.21L46.633 43.33L46.645 43.45L46.657 43.561L46.666 43.672L46.672 43.78L46.678 43.882V44.083L46.669 44.275L46.66 44.365L46.648 44.455L46.633 44.545L46.597 44.719L46.573 44.8L46.543 44.884L46.483 45.04L46.447 45.118L46.411 45.193L46.372 45.271L46.33 45.346L46.24 45.496L46.189 45.568L46.135 45.64L46.075 45.712L46.015 45.781L45.955 45.853L45.865 45.952L45.775 46.042L45.679 46.132L45.577 46.21L45.472 46.282L45.364 46.351L45.25 46.411L45.13 46.471L45.01 46.522L44.884 46.564L44.755 46.603L44.479 46.663L44.329 46.684L44.179 46.699H44.029H43.705L43.537 46.687L43.366 46.675L43.186 46.651L43.006 46.621L42.82 46.591L42.622 46.552L42.427 46.507L42.223 46.459L41.803 46.339L41.584 46.273L41.359 46.198L41.128 46.12L40.894 46.03L40.654 45.94L40.408 45.844L40.156 45.742L39.898 45.631L39.358 45.391L39.082 45.262L38.803 45.127L38.704 45.082L38.602 45.031L38.491 44.971L38.371 44.911L38.245 44.845L38.116 44.77L37.981 44.695L37.843 44.617L37.699 44.533L37.249 44.263L37.099 44.167L36.94 44.077L36.628 43.882L36.469 43.786L36.31 43.687L36.16 43.585L36.004 43.489L35.704 43.297L35.554 43.198L35.413 43.108L35.275 43.018L35.14 42.928L35.014 42.838L34.894 42.754L34.774 42.673L34.666 42.601L34.564 42.526L34.474 42.457L34.384 42.397L34.309 42.337L34.243 42.286L34.189 42.235L34.141 42.196L34.111 42.16L34.087 42.13L34.075 42.109L34.078 42.097L34.084 42.079L34.099 42.064V42.052L34.117 42.034L34.147 42.013L34.207 41.965L34.225 41.953L34.246 41.938L34.264 41.926L34.285 41.914L34.306 41.899L34.33 41.884L34.354 41.872L34.375 41.857L34.423 41.827L34.453 41.812L34.483 41.8L34.507 41.782L34.627 41.722L34.657 41.704L34.687 41.689L34.717 41.677L34.783 41.647L34.843 41.617L35.629 41.287L38.368 42.892L38.644 43.048L38.914 43.198L39.178 43.348L39.439 43.489L39.691 43.621L39.94 43.75L40.42 43.99L40.654 44.101L40.876 44.203L41.098 44.302L41.314 44.392L41.524 44.476L41.728 44.557L41.926 44.629L42.115 44.695L42.304 44.755L42.484 44.809L42.658 44.857L42.826 44.899L42.988 44.935L43.144 44.965L43.294 44.989L43.438 45.01L43.576 45.019H43.705H43.834L43.954 45.01L44.068 44.998L44.173 44.98L44.275 44.95L44.371 44.92L44.461 44.881L44.542 44.836L44.617 44.785L44.686 44.731L44.746 44.665L44.8 44.596L44.848 44.518L44.914 44.386L44.962 44.236L44.992 44.077L45.01 43.897L45.016 43.708L45.007 43.498L44.983 43.282L44.947 43.048L44.893 42.808L44.833 42.55L44.755 42.28L44.665 42.001L44.56 41.71L44.446 41.41L44.317 41.098L44.176 40.777L44.026 40.447L43.861 40.105L43.681 39.754L43.492 39.4L43.294 39.031L43.084 38.659L42.862 38.278L42.631 37.888L42.139 37.093L41.878 36.688L41.608 36.277L41.329 35.857L41.038 35.437L40.429 34.585L40.114 34.156L39.784 33.718L39.454 33.283L39.109 32.839L38.761 32.398L38.401 31.954L38.035 31.51L37.666 31.06L36.415 29.59L35.8 31.852L35.578 32.653L35.35 33.448L35.116 34.234L34.876 35.005L34.636 35.77L34.384 36.52L34.132 37.258L33.871 37.987L33.607 38.701L33.343 39.406L33.073 40.096L32.803 40.771L32.527 41.431L32.245 42.073L31.966 42.703L31.681 43.318L31.393 43.912L31.105 44.491L30.811 45.055L30.523 45.601L30.229 46.123L29.935 46.633L29.641 47.122L29.347 47.59L29.047 48.04L28.756 48.466L28.462 48.871L28.171 49.255L27.877 49.615L27.586 49.954L27.298 50.269L27.013 50.56L26.725 50.824L26.443 51.064L26.164 51.283L25.888 51.475L25.612 51.64L25.342 51.778L25.078 51.889L24.814 51.973L24.754 51.988L24.628 52.012L24.562 52.018L24.433 52.03H24.229L24.16 52.024L24.088 52.018L24.019 52.009L23.95 51.997L23.809 51.967L23.74 51.949L23.668 51.931L23.599 51.907L23.53 51.886L23.389 51.832L23.179 51.742L23.047 51.676L22.978 51.64L22.783 51.52L22.723 51.478L22.543 51.343L22.372 51.193L22.318 51.142L22.216 51.028L22.162 50.968L22.102 50.893L22.048 50.815L21.997 50.731L21.937 50.641L21.886 50.545L21.832 50.446L21.778 50.338L21.676 50.11L21.574 49.864L21.526 49.735L21.43 49.465L21.334 49.183L21.292 49.033L21.247 48.883L21.163 48.577L21.085 48.259L21.046 48.097L20.977 47.767L20.911 47.431L20.881 47.263L20.827 46.927L20.803 46.756L20.761 46.42L20.746 46.252L20.716 45.913L20.692 45.583L20.689 45.421L20.683 45.301L20.677 45.169V43.675L20.686 43.297L20.689 43.105L20.695 42.913L20.698 42.718L20.716 42.142L20.731 41.767L20.74 41.587L20.746 41.407L20.755 41.233L20.761 41.065L20.773 40.903L20.791 40.603L20.8 40.462L20.809 40.333L20.818 40.213L20.827 40.102L20.839 40L20.848 39.91L20.857 39.832L20.869 39.766L20.878 39.712L20.887 39.673L20.896 39.649L20.905 39.637L20.911 39.64L20.917 39.637L20.926 39.643H20.935L20.944 39.649L20.953 39.652L20.983 39.667L20.992 39.676L21.04 39.706L21.055 39.715L21.091 39.739L21.112 39.751L21.133 39.766L21.223 39.826L21.253 39.844L21.274 39.859L21.304 39.877L21.334 39.898L21.358 39.913L21.418 39.955L21.448 39.973L21.538 40.033L21.628 40.099L21.688 40.141L21.748 40.189L22.498 40.744L22.426 42.514L22.417 42.706L22.414 42.904V43.099L22.408 43.489V43.879L22.417 44.458L22.429 44.842L22.438 45.031L22.444 45.217L22.456 45.397L22.468 45.583L22.504 46.123L22.534 46.465L22.552 46.633L22.567 46.798L22.606 47.116L22.648 47.422L22.672 47.566L22.693 47.707L22.717 47.845L22.741 47.974L22.771 48.106L22.801 48.226L22.825 48.346L22.855 48.457L22.885 48.565L22.915 48.667L22.975 48.847L23.035 49.012L23.101 49.168L23.161 49.318L23.227 49.453L23.296 49.579L23.368 49.693L23.44 49.801L23.512 49.897L23.59 49.987L23.668 50.065L23.752 50.131L23.833 50.191L23.917 50.236L24.007 50.275L24.097 50.299L24.187 50.317L24.277 50.323H24.376L24.475 50.308L24.577 50.284L24.685 50.248L24.79 50.206L24.904 50.152L25.018 50.086L25.138 50.014L25.258 49.924L25.384 49.828L25.51 49.723L25.642 49.603L25.774 49.477L25.909 49.339L26.05 49.189L26.194 49.03L26.344 48.862L26.494 48.682L26.644 48.493L26.803 48.292L26.968 48.082L27.133 47.863L27.304 47.632L27.484 47.371L27.673 47.101L27.859 46.816L28.048 46.525L28.234 46.219L28.423 45.904L28.615 45.574L28.804 45.235L28.996 44.89L29.185 44.53L29.374 44.161L29.566 43.783L29.941 43.003L30.13 42.598L30.319 42.187L30.508 41.767L30.697 41.341L30.883 40.903L31.069 40.462L31.249 40.012L31.429 39.556L31.609 39.094L31.789 38.626L32.149 37.666L32.329 37.18L32.5 36.688L32.674 36.196L32.845 35.695L33.013 35.194L33.178 34.684L33.34 34.174L33.499 33.664L33.655 33.145L33.811 32.623L33.961 32.101L34.111 31.576L34.399 30.52L35.059 28.069L33.529 26.524L32.749 25.744L32.629 25.63L32.575 25.57L32.515 25.516L32.455 25.456L32.401 25.405L32.347 25.345L32.239 25.24L32.191 25.189L31.993 25.003L31.951 24.961L31.909 24.916L31.825 24.838L31.789 24.799L31.753 24.763L31.717 24.733L31.627 24.643L31.597 24.619L30.955 24.034L25.42 25.66L24.976 25.798L24.538 25.93L24.109 26.068L23.689 26.2L23.275 26.335L22.867 26.467L22.465 26.602L22.069 26.737L21.679 26.872L20.923 27.136L20.554 27.274L20.194 27.406L19.834 27.541L19.48 27.679L19.135 27.814L18.793 27.952L18.454 28.093L17.794 28.369L17.47 28.51L17.152 28.651L16.837 28.792L16.219 29.08L15.619 29.38L15.031 29.68L14.455 29.986L14.17 30.142L13.891 30.292L13.612 30.454L13.021 30.748L12.751 30.913L12.481 31.081L12.223 31.24L11.977 31.399L11.737 31.558L11.509 31.714L11.293 31.864L11.083 32.014L10.879 32.164L10.69 32.314L10.51 32.458L10.336 32.608L10.174 32.752L10.024 32.89L9.88 33.031L9.745 33.166L9.625 33.301L9.505 33.433L9.4 33.562L9.304 33.691L9.214 33.817L9.136 33.937L9.07 34.057L9.01 34.177L8.962 34.297L8.923 34.411L8.893 34.519L8.872 34.627L8.86 34.732V34.837L8.869 34.936L8.89 35.035L8.92 35.125L8.959 35.215L9.01 35.305L9.07 35.395L9.139 35.479L9.217 35.557L9.307 35.632L9.406 35.707L9.514 35.779L9.634 35.845L9.724 35.893L9.82 35.938L9.925 35.983L10.033 36.028L10.144 36.067L10.264 36.109L10.39 36.148L10.516 36.184L10.651 36.223L10.792 36.259L10.936 36.289L11.236 36.349L11.392 36.379L11.554 36.409L11.722 36.439L11.893 36.463L12.067 36.487L12.247 36.511L12.427 36.532L12.802 36.571L12.994 36.586L13.39 36.616L13.591 36.628L13.795 36.637L14.005 36.649L14.215 36.655L14.431 36.661L14.863 36.667H15.529L15.754 36.661L15.982 36.658L16.21 36.652L16.441 36.643L16.675 36.631L16.717 36.628L16.762 36.625H16.804L16.849 36.622L16.933 36.616L17.017 36.613H17.062H17.23H17.269L17.311 36.61L17.467 36.607L17.503 36.604H17.581L17.611 36.601H17.683L17.713 36.598H17.743L17.803 36.595L17.833 36.592L17.863 36.595H17.887L17.911 36.592H18.061L18.091 36.601L18.121 36.613L18.151 36.631L18.181 36.652L18.217 36.676L18.253 36.706L18.295 36.736L18.34 36.766L18.382 36.802L18.427 36.844L18.475 36.889L18.664 37.078L18.712 37.129L18.856 37.291L18.904 37.351L18.994 37.462L19.036 37.516L19.12 37.621L19.156 37.675L19.192 37.726L19.258 37.822L19.288 37.87L19.318 37.912L19.357 37.99L19.372 38.026L19.384 38.056L19.393 38.086L19.396 38.116V38.137L19.39 38.155L19.381 38.164L19.306 38.185H19.282L19.222 38.191L19.132 38.209H19.093L19.009 38.218L18.967 38.224L18.919 38.227L18.871 38.233H18.82L18.715 38.242L18.604 38.254L18.544 38.257L18.484 38.266L18.298 38.278L18.232 38.284L18.097 38.296H18.028L17.959 38.302L17.743 38.314H17.668L17.599 38.317L17.524 38.323L17.215 38.338L16.915 38.356L16.615 38.365L16.321 38.377L16.03 38.386L15.46 38.392H14.911L14.641 38.386H14.371L14.11 38.374L13.849 38.365L13.348 38.335L13.102 38.314L12.862 38.296L12.622 38.272L12.16 38.218L11.716 38.158L11.506 38.128L11.086 38.05L10.885 38.008L10.687 37.963L10.498 37.918L10.309 37.867L9.949 37.765L9.775 37.705L9.61 37.645L9.448 37.585L9.289 37.525L9.133 37.459L8.983 37.39L8.839 37.324L8.701 37.252L8.566 37.174L8.446 37.105L8.326 37.03L8.212 36.955L8.107 36.88L8.005 36.805L7.906 36.724L7.726 36.568L7.642 36.487L7.567 36.406L7.495 36.322L7.426 36.238L7.306 36.058L7.252 35.968L7.204 35.878L7.162 35.788L7.123 35.698L7.093 35.608L7.042 35.419L7.027 35.323L7.012 35.224L7.003 35.122L7 35.023L7.003 34.918L7.009 34.813L7.021 34.711L7.036 34.603L7.057 34.495L7.081 34.384L7.111 34.273L7.147 34.162L7.186 34.048L7.231 33.928L7.282 33.808L7.336 33.688L7.456 33.448L7.522 33.328L7.744 32.977L7.864 32.806L7.996 32.626L8.137 32.452L8.287 32.272L8.446 32.092L8.788 31.738L8.974 31.558L9.166 31.378L9.37 31.198L9.58 31.018L9.799 30.838L10.027 30.658L10.507 30.298L10.759 30.118L11.029 29.938L11.578 29.578L11.866 29.398L12.166 29.218L12.472 29.038L12.784 28.858L13.108 28.678L13.438 28.498L13.777 28.318L14.122 28.138L14.482 27.958L14.848 27.778L15.217 27.598L15.598 27.418L15.988 27.238L16.384 27.058L16.789 26.878L17.203 26.698L17.623 26.518L18.052 26.338L18.49 26.158L18.685 26.077L18.895 25.993L19.126 25.903L19.627 25.717L19.897 25.615L20.467 25.405L20.767 25.3L21.076 25.189L21.397 25.078L21.718 24.964L22.048 24.853L22.378 24.739L22.714 24.625L23.056 24.511L23.395 24.397L24.073 24.172L25.708 23.644L26.02 23.548L26.32 23.458L26.608 23.368L27.157 23.203L27.412 23.128L27.652 23.059L27.877 22.999L28.087 22.939L28.276 22.888L28.45 22.846L28.6 22.807L28.732 22.777L28.843 22.753L28.933 22.738L28.999 22.735L29.464 22.726L28.993 22.27L28.915 22.198L28.825 22.114L28.729 22.03L28.621 21.94L28.507 21.838L28.387 21.733L28.252 21.619L28.114 21.499L27.964 21.379L27.814 21.253L27.652 21.124L27.49 20.989L27.316 20.851L26.956 20.569L26.776 20.425L26.392 20.125L26.197 19.975L25.801 19.669L25.399 19.363L25.189 19.213L24.988 19.063L24.784 18.913L24.382 18.613L24.184 18.463L23.986 18.319L23.791 18.178L23.599 18.04L23.41 17.902L23.23 17.773L23.05 17.647L22.876 17.521L22.708 17.401L22.54 17.287L22.384 17.179L22.228 17.077L21.766 16.777L21.532 16.627L21.304 16.483L20.842 16.207L20.611 16.072L20.383 15.943L19.927 15.691L19.702 15.571L19.48 15.451L19.258 15.337L19.042 15.229L18.61 15.025L18.4 14.929L17.986 14.749L17.785 14.668L17.587 14.587L17.392 14.512L17.2 14.443L17.02 14.377L16.66 14.257L16.486 14.206L16.321 14.161L16.159 14.119L16 14.083L15.85 14.053L15.706 14.029L15.562 14.008L15.43 13.993L15.301 13.984H15.067L14.959 13.993L14.857 14.005L14.767 14.026L14.662 14.056L14.563 14.098L14.473 14.158L14.392 14.224L14.323 14.299L14.263 14.383L14.209 14.479L14.164 14.584L14.125 14.698L14.095 14.824L14.077 14.956L14.065 15.1L14.062 15.25L14.068 15.409L14.083 15.577L14.101 15.757L14.131 15.943L14.167 16.132L14.212 16.333L14.266 16.543L14.326 16.762L14.392 16.981L14.557 17.452L14.647 17.692L14.746 17.941L14.854 18.199L14.974 18.463L15.094 18.733L15.223 19.003L15.364 19.285L15.508 19.567L15.658 19.858L15.817 20.152L15.985 20.452L16.159 20.758L16.339 21.067L16.531 21.379L16.726 21.697L16.927 22.018L17.767 23.347L17.392 24.205L17.377 24.241L17.347 24.307L17.332 24.346L17.302 24.415L17.284 24.445L17.269 24.481L17.254 24.511L17.239 24.547L17.227 24.577L17.197 24.637L17.185 24.667L17.155 24.727L17.146 24.757L17.131 24.787L17.101 24.859L17.086 24.883L17.077 24.904L17.038 24.982L17.008 25.03L17.002 25.042L16.993 25.054L16.978 25.084L16.957 25.105H16.942L16.894 25.057L16.858 25.018L16.819 24.964L16.771 24.904L16.717 24.832L16.657 24.748L16.591 24.658L16.522 24.559L16.372 24.334L16.291 24.214L16.207 24.085L16.117 23.95L16.021 23.803L15.832 23.503L15.634 23.194L15.334 22.714L15.232 22.546L15.133 22.381L15.031 22.219L14.836 21.889L14.737 21.727L14.647 21.568L14.551 21.409L14.377 21.109L14.293 20.959L14.212 20.818L14.137 20.68L14.062 20.551L13.996 20.431L13.876 20.203L13.798 20.059L13.723 19.909L13.651 19.759L13.507 19.453L13.441 19.297L13.306 18.982L13.126 18.502L13.066 18.34L13.012 18.181L12.952 18.022L12.85 17.704L12.802 17.542L12.712 17.23L12.628 16.921L12.556 16.621L12.526 16.471L12.466 16.183L12.442 16.042L12.4 15.772L12.382 15.643L12.37 15.517L12.358 15.397L12.352 15.277V15.163L12.349 15.055L12.352 14.947V14.848L12.37 14.662L12.385 14.581L12.415 14.431L12.436 14.359L12.46 14.287L12.484 14.212L12.508 14.143L12.568 13.999L12.628 13.861L12.7 13.723L12.736 13.663L12.817 13.531L12.859 13.471L12.991 13.291L13.039 13.231L13.135 13.12L13.186 13.069L13.237 13.015L13.288 12.967L13.342 12.916L13.453 12.826L13.507 12.784L13.567 12.742L13.621 12.703L13.735 12.631L13.915 12.541L14.035 12.493L14.155 12.454L14.374 12.409L14.605 12.379L14.845 12.358L15.103 12.355L15.373 12.364L15.655 12.394L15.943 12.433L16.243 12.493L16.555 12.559L16.876 12.64L17.212 12.739L17.554 12.847L17.905 12.973L18.265 13.105L18.637 13.255L19.015 13.417L19.405 13.597L19.795 13.786L20.197 13.984L20.608 14.194L21.022 14.416L21.442 14.65L21.871 14.899L22.306 15.157L22.744 15.427L23.188 15.709L23.638 16.003L24.088 16.303L24.547 16.618L25.009 16.942L25.474 17.278L25.942 17.623L26.416 17.974L26.89 18.34L27.37 18.715L27.85 19.099L28.33 19.489L28.81 19.891L29.29 20.302L29.77 20.722L31.396 22.168L33.631 21.703L33.967 21.643L34.288 21.583L34.444 21.553L34.669 21.508L34.741 21.499L34.879 21.469L34.945 21.457L35.074 21.436L35.194 21.415L35.254 21.406L35.308 21.397L35.413 21.382L35.461 21.376L35.506 21.367L35.551 21.361L35.632 21.349L35.668 21.346H35.698H35.866L35.89 21.34L35.92 21.328L35.944 21.316L35.974 21.298L36.022 21.25L36.043 21.22L36.067 21.19L36.088 21.151L36.109 21.106L36.127 21.058L36.151 21.004L36.172 20.944L36.19 20.878L36.208 20.809L36.226 20.734L36.244 20.653L36.265 20.569L36.28 20.479L36.298 20.383L36.313 20.281L36.331 20.173L36.346 20.053L36.364 19.933L36.379 19.804L36.394 19.672L36.412 19.531L36.427 19.381L36.439 19.231L36.454 19.072L36.469 18.904L36.484 18.73L36.499 18.55L36.514 18.361L36.526 18.166L36.541 17.962L36.556 17.752L36.571 17.533L36.583 17.308L36.601 16.978L36.616 16.648L36.628 16.33L36.646 15.7V14.8L36.64 14.509L36.634 14.221L36.61 13.666L36.595 13.396L36.574 13.132L36.553 12.874L36.529 12.622L36.499 12.376L36.469 12.136L36.439 11.905L36.409 11.68L36.37 11.464L36.334 11.254L36.292 11.053L36.247 10.858L36.202 10.672L36.154 10.492L36.103 10.321L36.052 10.159L35.992 10.003L35.932 9.859L35.872 9.718L35.812 9.592L35.746 9.472L35.68 9.361L35.611 9.259L35.542 9.169L35.47 9.088L35.395 9.016L35.32 8.956L35.239 8.905L35.161 8.866L35.071 8.836L34.981 8.803L34.891 8.788L34.801 8.782L34.711 8.785L34.621 8.803L34.522 8.818L34.42 8.848L34.318 8.884L34.213 8.926L33.997 9.046L33.886 9.118L33.772 9.196L33.658 9.286L33.538 9.382L33.418 9.487L33.298 9.601L33.178 9.721L33.058 9.853L32.926 9.991L32.797 10.135L32.665 10.285L32.53 10.45L32.392 10.618L32.257 10.798L32.116 10.984L31.972 11.176L31.831 11.386L31.681 11.596L31.531 11.812L31.381 12.043L31.231 12.277L31.081 12.517L30.931 12.769L30.772 13.027L30.454 13.567L30.292 13.852L28.876 16.327L27.946 16.447L27.916 16.45L27.88 16.453H27.85H27.814H27.784H27.754H27.724H27.484H27.46H27.439L27.409 16.45H27.388L27.367 16.447L27.307 16.435H27.277L27.247 16.423H27.235L27.205 16.405L27.196 16.399L27.193 16.39L27.187 16.384L27.184 16.372V16.363L27.19 16.327L27.199 16.282L27.217 16.222L27.238 16.156L27.268 16.084L27.298 16L27.334 15.91L27.379 15.814L27.421 15.703L27.472 15.592L27.526 15.472L27.586 15.352L27.646 15.223L27.706 15.091L27.772 14.956L27.844 14.815L27.985 14.521L28.135 14.221L28.213 14.071L28.291 13.915L28.531 13.459L28.615 13.309L28.696 13.159L28.774 13.009L28.858 12.859L29.014 12.577L29.092 12.442L29.167 12.31L29.242 12.184L29.317 12.064L29.386 11.944L29.452 11.836L29.518 11.734L29.578 11.635L29.638 11.545L29.77 11.35L30.034 10.969L30.163 10.789L30.421 10.435L30.67 10.105L30.796 9.943L31.162 9.484L31.282 9.34L31.402 9.202L31.522 9.067L31.642 8.938L31.876 8.692L31.996 8.572L32.224 8.35L32.338 8.248L32.56 8.05L32.782 7.87L32.893 7.786L33.001 7.705L33.121 7.603L33.331 7.468L33.439 7.408L33.544 7.348L33.649 7.294L33.751 7.246L33.859 7.201L33.958 7.156L34.06 7.12L34.162 7.09L34.261 7.06L34.387 7.03L34.453 7.018L34.513 7.012L34.579 7.006L34.711 7H34.78L34.849 7.003L34.915 7.009L34.921 7.012ZM35.041 23.203L34.693 23.272L34.318 23.362L33.958 23.467L33.658 23.569L33.43 23.659L33.295 23.737L33.271 23.797L33.613 24.178L34.123 24.703L34.669 25.237L35.113 25.648L35.323 25.81L35.371 25.732L35.437 25.543L35.515 25.258L35.605 24.898L35.689 24.487L35.773 24.016L35.818 23.647V23.386L35.779 23.218L35.698 23.146L35.566 23.134L35.341 23.152L35.041 23.197V23.203ZM20.431 23.173L19.129 23.677L19.519 22.951C20.023 22 21.259 20.602 22.291 19.819C22.345 19.774 22.615 19.561 23.107 19.174L23.803 19.666C24.184 19.936 24.508 20.197 24.523 20.266C24.538 20.32 24.274 20.566 23.941 20.776C23.593 21.004 22.957 21.526 22.522 21.934C21.97 22.474 21.364 22.828 20.431 23.176V23.173ZM27.901 40.765C24.661 40.333 21.553 38.365 19.69 35.545C18.901 34.339 17.95 31.66 17.89 30.49C17.854 29.785 17.911 29.71 18.619 29.38C19.039 29.191 19.405 29.05 19.447 29.062C19.477 29.092 19.597 29.776 19.687 30.61C20.017 33.298 21.703 35.974 24.055 37.495C25.351 38.353 27.235 38.995 28.609 39.073C29.143 39.103 29.599 39.193 29.608 39.253C29.629 39.328 29.479 39.715 29.278 40.138L28.924 40.918L27.895 40.768L27.901 40.765ZM29.191 17.749C28.606 17.167 31.981 17.599 33.772 18.349C34.798 18.769 34.876 18.829 34.804 19.294C34.75 19.684 33.013 19.855 31.966 19.57C31.216 19.366 30.037 18.592 29.191 17.752V17.749ZM36.625 35.878C37.096 35.38 37.606 34.738 37.735 34.498C38.053 33.868 38.185 33.868 38.563 34.39C38.731 34.654 38.968 34.96 39.085 35.125C39.235 35.317 39.088 35.626 38.596 36.265C37.405 37.825 34.684 39.919 34.912 39.097C35.326 37.747 35.872 36.682 36.628 35.881L36.625 35.878ZM40.075 28.543C39.493 27.823 39.205 27.259 39.004 26.497C38.5 24.616 39.274 22.873 39.976 24.256C40.372 25.006 40.96 27.355 41.047 28.477C41.098 29.026 41.071 29.497 41.017 29.515C40.945 29.533 40.537 29.08 40.078 28.543H40.075Z" fill="url(#paint0_linear_6428_76)"/>
</g>
<path d="M34.921 7.012L35.059 7.03L35.2 7.054L35.272 7.069L35.341 7.084L35.41 7.105L35.482 7.126L35.623 7.174L35.692 7.204L35.764 7.234L35.899 7.294L35.968 7.324L36.1 7.396L36.232 7.474L36.421 7.603L36.601 7.747L36.715 7.849L36.823 7.957L36.874 8.017L36.904 8.053L36.934 8.092L36.964 8.128L36.994 8.17L37.024 8.206L37.084 8.284L37.114 8.326L37.144 8.365L37.195 8.446L37.249 8.536L37.297 8.626L37.345 8.722L37.369 8.773L37.414 8.881L37.435 8.941L37.465 9.001L37.486 9.061L37.51 9.121L37.531 9.19L37.555 9.259L37.576 9.328L37.624 9.478L37.648 9.556L37.672 9.64L37.702 9.73L37.891 10.435L37.921 10.555L37.963 10.717L38.002 10.882L38.074 11.221L38.104 11.395L38.14 11.566L38.17 11.746L38.224 12.106L38.254 12.286L38.278 12.475L38.299 12.661L38.32 12.853L38.338 13.045L38.356 13.24L38.371 13.435L38.383 13.636L38.398 13.837L38.428 14.455L38.44 15.316L38.431 15.985L38.413 16.444L38.407 16.678L38.392 16.912L38.38 17.152L38.35 17.632L38.329 17.878L38.311 18.124L38.233 18.964L38.227 19.042L38.218 19.12L38.212 19.201L38.2 19.357L38.188 19.507L38.182 19.579L38.173 19.723L38.167 19.789L38.164 19.858V19.927L38.158 19.987L38.155 20.053V20.173L38.146 20.284V20.335L38.143 20.389L38.137 20.485V20.575V20.614V20.689L38.134 20.749L38.137 20.779V20.803V20.827V20.845V20.86V20.875L38.14 20.884L38.143 20.89H38.146H38.152L38.161 20.893H38.362L38.401 20.89H38.443H38.488H38.536L38.638 20.884L38.749 20.878L38.809 20.875H38.935L39.073 20.863H39.145L39.214 20.857L39.289 20.851L39.367 20.845L39.448 20.839H39.529L39.607 20.833L39.691 20.827L39.781 20.818L39.871 20.812H39.955L40.135 20.8L40.225 20.791L40.411 20.776L40.501 20.767L40.921 20.737L41.332 20.707L41.74 20.683L42.532 20.653L42.922 20.644L43.3 20.638H43.675H44.041L44.401 20.644L44.752 20.653L45.433 20.683L45.763 20.707L46.084 20.731L46.399 20.761L46.708 20.791L47.008 20.827L47.299 20.866L47.581 20.911L47.86 20.959L48.124 21.01L48.385 21.07L48.634 21.13L48.874 21.19L49.108 21.256L49.333 21.328L49.549 21.4L49.759 21.478L49.96 21.559L50.149 21.643L50.329 21.733L50.503 21.823L50.665 21.919L50.815 22.018L50.965 22.123L51.1 22.228L51.226 22.336L51.34 22.45L51.448 22.57L51.49 22.621L51.571 22.72L51.607 22.768L51.643 22.819L51.673 22.87L51.703 22.918L51.763 23.008L51.793 23.059L51.868 23.2L51.892 23.248L51.913 23.293L51.931 23.344L51.979 23.485L52.009 23.584L52.027 23.683L52.036 23.731L52.042 23.785L52.048 23.833V23.884L52.054 23.992V24.046L52.048 24.154L52.045 24.214L52.039 24.274L52.036 24.334L52.018 24.454L52.006 24.514L51.994 24.58L51.985 24.64L51.961 24.745L51.931 24.85L51.895 24.958L51.856 25.066L51.811 25.177L51.76 25.291L51.706 25.402L51.646 25.522L51.58 25.636L51.508 25.756L51.433 25.876L51.355 25.996L51.175 26.236L50.983 26.482L50.875 26.602L50.77 26.728L50.416 27.1L50.29 27.229L50.026 27.481L49.888 27.61L49.6 27.862L49.45 27.991L49.141 28.243L48.982 28.372L48.817 28.492L48.307 28.867L48.127 28.987L47.761 29.227L47.575 29.347L47.386 29.467L47.272 29.539L47.152 29.611L47.026 29.686L46.9 29.764L46.765 29.842L46.627 29.92L46.339 30.082L46.189 30.172L46.039 30.253L45.889 30.337L45.739 30.427L45.43 30.595L45.274 30.676L45.124 30.76L44.968 30.841L44.668 31L44.518 31.078L44.368 31.153L44.224 31.228L43.948 31.366L43.69 31.492L43.564 31.552L43.45 31.612L43.339 31.663L43.234 31.714L43.138 31.759L43.048 31.798L42.967 31.828L42.889 31.858L42.829 31.888L42.769 31.906L42.718 31.924L42.682 31.933L42.652 31.939L42.637 31.933L42.625 31.921L42.613 31.903L42.604 31.879L42.595 31.849L42.589 31.819L42.586 31.78L42.58 31.738V31.693L42.583 31.642V31.582L42.586 31.528L42.592 31.468L42.595 31.408L42.61 31.276L42.619 31.21L42.649 31L42.661 30.928L42.691 30.787L42.706 30.715L42.736 30.58L42.754 30.514L42.769 30.448L42.79 30.388L42.805 30.328L42.826 30.268L42.847 30.214L42.883 30.118L42.901 30.073L42.922 30.034L42.943 29.998L42.961 29.968L42.982 29.938L43 29.92L43.018 29.905L43.048 29.893L43.078 29.878L43.093 29.866L43.114 29.854L43.132 29.845L43.153 29.836L43.177 29.824L43.225 29.794L43.279 29.77L43.309 29.752L43.339 29.74L43.399 29.704L43.495 29.656L43.561 29.62L43.63 29.581L43.702 29.545L43.813 29.485L43.849 29.464L43.924 29.425L43.963 29.404L44.038 29.365L44.08 29.347L44.116 29.326L44.155 29.308L44.194 29.287L44.233 29.269L44.644 29.059L44.845 28.951L45.046 28.837L45.244 28.729L45.439 28.621L45.631 28.51L46.009 28.285L46.189 28.177L46.549 27.952L46.723 27.838L46.894 27.73L47.065 27.616L47.23 27.505L47.392 27.391L47.551 27.283L47.707 27.172L48.007 26.95L48.148 26.845L48.286 26.734L48.421 26.626L48.553 26.518L48.805 26.308L48.925 26.203L49.147 25.999L49.348 25.798L49.528 25.603L49.612 25.507L49.693 25.417L49.765 25.327L49.834 25.237L49.894 25.147L50.002 24.973L50.044 24.889L50.086 24.799L50.122 24.718L50.152 24.637L50.176 24.556L50.194 24.478L50.206 24.4L50.212 24.322V24.172L50.203 24.097L50.188 24.025L50.167 23.959L50.143 23.89L50.113 23.821L50.077 23.755L50.035 23.695L49.939 23.569L49.819 23.449L49.675 23.335L49.597 23.281L49.513 23.227L49.333 23.125L49.129 23.026L49.018 22.981L48.898 22.936L48.778 22.894L48.652 22.852L48.523 22.81L48.385 22.768L48.244 22.729L48.094 22.693L47.944 22.663L47.788 22.633L47.647 22.603L47.497 22.573L47.338 22.549L47.164 22.531L46.984 22.507L46.795 22.489L46.6 22.471L46.399 22.456L46.189 22.441L45.973 22.426L45.751 22.414L45.295 22.396L45.055 22.387L44.815 22.381H44.575L44.074 22.375L43.825 22.378H43.57L42.799 22.387L42.544 22.396L42.286 22.405L42.028 22.411L41.776 22.426L41.521 22.435L41.269 22.453L41.023 22.468L40.774 22.486L40.534 22.501L40.063 22.543L39.835 22.564L39.61 22.588L39.394 22.612L38.974 22.672L38.779 22.702L37.753 22.858L37.333 25.207L36.895 27.556L38.935 29.938L39.247 30.313L39.556 30.682L39.856 31.042L40.15 31.402L40.435 31.762L40.714 32.116L40.984 32.464L41.248 32.809L41.509 33.148L41.761 33.487L42.007 33.817L42.247 34.147L42.481 34.477L42.706 34.798L42.925 35.119L43.345 35.749L43.546 36.058L43.741 36.364L43.927 36.664L44.107 36.964L44.281 37.258L44.449 37.552L44.611 37.837L44.767 38.125L44.917 38.41L45.061 38.689L45.196 38.965L45.325 39.235L45.451 39.505L45.571 39.775L45.682 40.039L45.79 40.309L45.889 40.567L45.985 40.825L46.075 41.083L46.159 41.335L46.234 41.584L46.303 41.833L46.348 41.989L46.384 42.139L46.426 42.289L46.456 42.433L46.486 42.571L46.516 42.706L46.546 42.838L46.57 42.97L46.594 43.09L46.612 43.21L46.633 43.33L46.645 43.45L46.657 43.561L46.666 43.672L46.672 43.78L46.678 43.882V44.083L46.669 44.275L46.66 44.365L46.648 44.455L46.633 44.545L46.597 44.719L46.573 44.8L46.543 44.884L46.483 45.04L46.447 45.118L46.411 45.193L46.372 45.271L46.33 45.346L46.24 45.496L46.189 45.568L46.135 45.64L46.075 45.712L46.015 45.781L45.955 45.853L45.865 45.952L45.775 46.042L45.679 46.132L45.577 46.21L45.472 46.282L45.364 46.351L45.25 46.411L45.13 46.471L45.01 46.522L44.884 46.564L44.755 46.603L44.479 46.663L44.329 46.684L44.179 46.699H44.029H43.705L43.537 46.687L43.366 46.675L43.186 46.651L43.006 46.621L42.82 46.591L42.622 46.552L42.427 46.507L42.223 46.459L41.803 46.339L41.584 46.273L41.359 46.198L41.128 46.12L40.894 46.03L40.654 45.94L40.408 45.844L40.156 45.742L39.898 45.631L39.358 45.391L39.082 45.262L38.803 45.127L38.704 45.082L38.602 45.031L38.491 44.971L38.371 44.911L38.245 44.845L38.116 44.77L37.981 44.695L37.843 44.617L37.699 44.533L37.249 44.263L37.099 44.167L36.94 44.077L36.628 43.882L36.469 43.786L36.31 43.687L36.16 43.585L36.004 43.489L35.704 43.297L35.554 43.198L35.413 43.108L35.275 43.018L35.14 42.928L35.014 42.838L34.894 42.754L34.774 42.673L34.666 42.601L34.564 42.526L34.474 42.457L34.384 42.397L34.309 42.337L34.243 42.286L34.189 42.235L34.141 42.196L34.111 42.16L34.087 42.13L34.075 42.109L34.078 42.097L34.084 42.079L34.099 42.064V42.052L34.117 42.034L34.147 42.013L34.207 41.965L34.225 41.953L34.246 41.938L34.264 41.926L34.285 41.914L34.306 41.899L34.33 41.884L34.354 41.872L34.375 41.857L34.423 41.827L34.453 41.812L34.483 41.8L34.507 41.782L34.627 41.722L34.657 41.704L34.687 41.689L34.717 41.677L34.783 41.647L34.843 41.617L35.629 41.287L38.368 42.892L38.644 43.048L38.914 43.198L39.178 43.348L39.439 43.489L39.691 43.621L39.94 43.75L40.42 43.99L40.654 44.101L40.876 44.203L41.098 44.302L41.314 44.392L41.524 44.476L41.728 44.557L41.926 44.629L42.115 44.695L42.304 44.755L42.484 44.809L42.658 44.857L42.826 44.899L42.988 44.935L43.144 44.965L43.294 44.989L43.438 45.01L43.576 45.019H43.705H43.834L43.954 45.01L44.068 44.998L44.173 44.98L44.275 44.95L44.371 44.92L44.461 44.881L44.542 44.836L44.617 44.785L44.686 44.731L44.746 44.665L44.8 44.596L44.848 44.518L44.914 44.386L44.962 44.236L44.992 44.077L45.01 43.897L45.016 43.708L45.007 43.498L44.983 43.282L44.947 43.048L44.893 42.808L44.833 42.55L44.755 42.28L44.665 42.001L44.56 41.71L44.446 41.41L44.317 41.098L44.176 40.777L44.026 40.447L43.861 40.105L43.681 39.754L43.492 39.4L43.294 39.031L43.084 38.659L42.862 38.278L42.631 37.888L42.139 37.093L41.878 36.688L41.608 36.277L41.329 35.857L41.038 35.437L40.429 34.585L40.114 34.156L39.784 33.718L39.454 33.283L39.109 32.839L38.761 32.398L38.401 31.954L38.035 31.51L37.666 31.06L36.415 29.59L35.8 31.852L35.578 32.653L35.35 33.448L35.116 34.234L34.876 35.005L34.636 35.77L34.384 36.52L34.132 37.258L33.871 37.987L33.607 38.701L33.343 39.406L33.073 40.096L32.803 40.771L32.527 41.431L32.245 42.073L31.966 42.703L31.681 43.318L31.393 43.912L31.105 44.491L30.811 45.055L30.523 45.601L30.229 46.123L29.935 46.633L29.641 47.122L29.347 47.59L29.047 48.04L28.756 48.466L28.462 48.871L28.171 49.255L27.877 49.615L27.586 49.954L27.298 50.269L27.013 50.56L26.725 50.824L26.443 51.064L26.164 51.283L25.888 51.475L25.612 51.64L25.342 51.778L25.078 51.889L24.814 51.973L24.754 51.988L24.628 52.012L24.562 52.018L24.433 52.03H24.229L24.16 52.024L24.088 52.018L24.019 52.009L23.95 51.997L23.809 51.967L23.74 51.949L23.668 51.931L23.599 51.907L23.53 51.886L23.389 51.832L23.179 51.742L23.047 51.676L22.978 51.64L22.783 51.52L22.723 51.478L22.543 51.343L22.372 51.193L22.318 51.142L22.216 51.028L22.162 50.968L22.102 50.893L22.048 50.815L21.997 50.731L21.937 50.641L21.886 50.545L21.832 50.446L21.778 50.338L21.676 50.11L21.574 49.864L21.526 49.735L21.43 49.465L21.334 49.183L21.292 49.033L21.247 48.883L21.163 48.577L21.085 48.259L21.046 48.097L20.977 47.767L20.911 47.431L20.881 47.263L20.827 46.927L20.803 46.756L20.761 46.42L20.746 46.252L20.716 45.913L20.692 45.583L20.689 45.421L20.683 45.301L20.677 45.169V43.675L20.686 43.297L20.689 43.105L20.695 42.913L20.698 42.718L20.716 42.142L20.731 41.767L20.74 41.587L20.746 41.407L20.755 41.233L20.761 41.065L20.773 40.903L20.791 40.603L20.8 40.462L20.809 40.333L20.818 40.213L20.827 40.102L20.839 40L20.848 39.91L20.857 39.832L20.869 39.766L20.878 39.712L20.887 39.673L20.896 39.649L20.905 39.637L20.911 39.64L20.917 39.637L20.926 39.643H20.935L20.944 39.649L20.953 39.652L20.983 39.667L20.992 39.676L21.04 39.706L21.055 39.715L21.091 39.739L21.112 39.751L21.133 39.766L21.223 39.826L21.253 39.844L21.274 39.859L21.304 39.877L21.334 39.898L21.358 39.913L21.418 39.955L21.448 39.973L21.538 40.033L21.628 40.099L21.688 40.141L21.748 40.189L22.498 40.744L22.426 42.514L22.417 42.706L22.414 42.904V43.099L22.408 43.489V43.879L22.417 44.458L22.429 44.842L22.438 45.031L22.444 45.217L22.456 45.397L22.468 45.583L22.504 46.123L22.534 46.465L22.552 46.633L22.567 46.798L22.606 47.116L22.648 47.422L22.672 47.566L22.693 47.707L22.717 47.845L22.741 47.974L22.771 48.106L22.801 48.226L22.825 48.346L22.855 48.457L22.885 48.565L22.915 48.667L22.975 48.847L23.035 49.012L23.101 49.168L23.161 49.318L23.227 49.453L23.296 49.579L23.368 49.693L23.44 49.801L23.512 49.897L23.59 49.987L23.668 50.065L23.752 50.131L23.833 50.191L23.917 50.236L24.007 50.275L24.097 50.299L24.187 50.317L24.277 50.323H24.376L24.475 50.308L24.577 50.284L24.685 50.248L24.79 50.206L24.904 50.152L25.018 50.086L25.138 50.014L25.258 49.924L25.384 49.828L25.51 49.723L25.642 49.603L25.774 49.477L25.909 49.339L26.05 49.189L26.194 49.03L26.344 48.862L26.494 48.682L26.644 48.493L26.803 48.292L26.968 48.082L27.133 47.863L27.304 47.632L27.484 47.371L27.673 47.101L27.859 46.816L28.048 46.525L28.234 46.219L28.423 45.904L28.615 45.574L28.804 45.235L28.996 44.89L29.185 44.53L29.374 44.161L29.566 43.783L29.941 43.003L30.13 42.598L30.319 42.187L30.508 41.767L30.697 41.341L30.883 40.903L31.069 40.462L31.249 40.012L31.429 39.556L31.609 39.094L31.789 38.626L32.149 37.666L32.329 37.18L32.5 36.688L32.674 36.196L32.845 35.695L33.013 35.194L33.178 34.684L33.34 34.174L33.499 33.664L33.655 33.145L33.811 32.623L33.961 32.101L34.111 31.576L34.399 30.52L35.059 28.069L33.529 26.524L32.749 25.744L32.629 25.63L32.575 25.57L32.515 25.516L32.455 25.456L32.401 25.405L32.347 25.345L32.239 25.24L32.191 25.189L31.993 25.003L31.951 24.961L31.909 24.916L31.825 24.838L31.789 24.799L31.753 24.763L31.717 24.733L31.627 24.643L31.597 24.619L30.955 24.034L25.42 25.66L24.976 25.798L24.538 25.93L24.109 26.068L23.689 26.2L23.275 26.335L22.867 26.467L22.465 26.602L22.069 26.737L21.679 26.872L20.923 27.136L20.554 27.274L20.194 27.406L19.834 27.541L19.48 27.679L19.135 27.814L18.793 27.952L18.454 28.093L17.794 28.369L17.47 28.51L17.152 28.651L16.837 28.792L16.219 29.08L15.619 29.38L15.031 29.68L14.455 29.986L14.17 30.142L13.891 30.292L13.612 30.454L13.021 30.748L12.751 30.913L12.481 31.081L12.223 31.24L11.977 31.399L11.737 31.558L11.509 31.714L11.293 31.864L11.083 32.014L10.879 32.164L10.69 32.314L10.51 32.458L10.336 32.608L10.174 32.752L10.024 32.89L9.88 33.031L9.745 33.166L9.625 33.301L9.505 33.433L9.4 33.562L9.304 33.691L9.214 33.817L9.136 33.937L9.07 34.057L9.01 34.177L8.962 34.297L8.923 34.411L8.893 34.519L8.872 34.627L8.86 34.732V34.837L8.869 34.936L8.89 35.035L8.92 35.125L8.959 35.215L9.01 35.305L9.07 35.395L9.139 35.479L9.217 35.557L9.307 35.632L9.406 35.707L9.514 35.779L9.634 35.845L9.724 35.893L9.82 35.938L9.925 35.983L10.033 36.028L10.144 36.067L10.264 36.109L10.39 36.148L10.516 36.184L10.651 36.223L10.792 36.259L10.936 36.289L11.236 36.349L11.392 36.379L11.554 36.409L11.722 36.439L11.893 36.463L12.067 36.487L12.247 36.511L12.427 36.532L12.802 36.571L12.994 36.586L13.39 36.616L13.591 36.628L13.795 36.637L14.005 36.649L14.215 36.655L14.431 36.661L14.863 36.667H15.529L15.754 36.661L15.982 36.658L16.21 36.652L16.441 36.643L16.675 36.631L16.717 36.628L16.762 36.625H16.804L16.849 36.622L16.933 36.616L17.017 36.613H17.062H17.23H17.269L17.311 36.61L17.467 36.607L17.503 36.604H17.581L17.611 36.601H17.683L17.713 36.598H17.743L17.803 36.595L17.833 36.592L17.863 36.595H17.887L17.911 36.592H18.061L18.091 36.601L18.121 36.613L18.151 36.631L18.181 36.652L18.217 36.676L18.253 36.706L18.295 36.736L18.34 36.766L18.382 36.802L18.427 36.844L18.475 36.889L18.664 37.078L18.712 37.129L18.856 37.291L18.904 37.351L18.994 37.462L19.036 37.516L19.12 37.621L19.156 37.675L19.192 37.726L19.258 37.822L19.288 37.87L19.318 37.912L19.357 37.99L19.372 38.026L19.384 38.056L19.393 38.086L19.396 38.116V38.137L19.39 38.155L19.381 38.164L19.306 38.185H19.282L19.222 38.191L19.132 38.209H19.093L19.009 38.218L18.967 38.224L18.919 38.227L18.871 38.233H18.82L18.715 38.242L18.604 38.254L18.544 38.257L18.484 38.266L18.298 38.278L18.232 38.284L18.097 38.296H18.028L17.959 38.302L17.743 38.314H17.668L17.599 38.317L17.524 38.323L17.215 38.338L16.915 38.356L16.615 38.365L16.321 38.377L16.03 38.386L15.46 38.392H14.911L14.641 38.386H14.371L14.11 38.374L13.849 38.365L13.348 38.335L13.102 38.314L12.862 38.296L12.622 38.272L12.16 38.218L11.716 38.158L11.506 38.128L11.086 38.05L10.885 38.008L10.687 37.963L10.498 37.918L10.309 37.867L9.949 37.765L9.775 37.705L9.61 37.645L9.448 37.585L9.289 37.525L9.133 37.459L8.983 37.39L8.839 37.324L8.701 37.252L8.566 37.174L8.446 37.105L8.326 37.03L8.212 36.955L8.107 36.88L8.005 36.805L7.906 36.724L7.726 36.568L7.642 36.487L7.567 36.406L7.495 36.322L7.426 36.238L7.306 36.058L7.252 35.968L7.204 35.878L7.162 35.788L7.123 35.698L7.093 35.608L7.042 35.419L7.027 35.323L7.012 35.224L7.003 35.122L7 35.023L7.003 34.918L7.009 34.813L7.021 34.711L7.036 34.603L7.057 34.495L7.081 34.384L7.111 34.273L7.147 34.162L7.186 34.048L7.231 33.928L7.282 33.808L7.336 33.688L7.456 33.448L7.522 33.328L7.744 32.977L7.864 32.806L7.996 32.626L8.137 32.452L8.287 32.272L8.446 32.092L8.788 31.738L8.974 31.558L9.166 31.378L9.37 31.198L9.58 31.018L9.799 30.838L10.027 30.658L10.507 30.298L10.759 30.118L11.029 29.938L11.578 29.578L11.866 29.398L12.166 29.218L12.472 29.038L12.784 28.858L13.108 28.678L13.438 28.498L13.777 28.318L14.122 28.138L14.482 27.958L14.848 27.778L15.217 27.598L15.598 27.418L15.988 27.238L16.384 27.058L16.789 26.878L17.203 26.698L17.623 26.518L18.052 26.338L18.49 26.158L18.685 26.077L18.895 25.993L19.126 25.903L19.627 25.717L19.897 25.615L20.467 25.405L20.767 25.3L21.076 25.189L21.397 25.078L21.718 24.964L22.048 24.853L22.378 24.739L22.714 24.625L23.056 24.511L23.395 24.397L24.073 24.172L25.708 23.644L26.02 23.548L26.32 23.458L26.608 23.368L27.157 23.203L27.412 23.128L27.652 23.059L27.877 22.999L28.087 22.939L28.276 22.888L28.45 22.846L28.6 22.807L28.732 22.777L28.843 22.753L28.933 22.738L28.999 22.735L29.464 22.726L28.993 22.27L28.915 22.198L28.825 22.114L28.729 22.03L28.621 21.94L28.507 21.838L28.387 21.733L28.252 21.619L28.114 21.499L27.964 21.379L27.814 21.253L27.652 21.124L27.49 20.989L27.316 20.851L26.956 20.569L26.776 20.425L26.392 20.125L26.197 19.975L25.801 19.669L25.399 19.363L25.189 19.213L24.988 19.063L24.784 18.913L24.382 18.613L24.184 18.463L23.986 18.319L23.791 18.178L23.599 18.04L23.41 17.902L23.23 17.773L23.05 17.647L22.876 17.521L22.708 17.401L22.54 17.287L22.384 17.179L22.228 17.077L21.766 16.777L21.532 16.627L21.304 16.483L20.842 16.207L20.611 16.072L20.383 15.943L19.927 15.691L19.702 15.571L19.48 15.451L19.258 15.337L19.042 15.229L18.61 15.025L18.4 14.929L17.986 14.749L17.785 14.668L17.587 14.587L17.392 14.512L17.2 14.443L17.02 14.377L16.66 14.257L16.486 14.206L16.321 14.161L16.159 14.119L16 14.083L15.85 14.053L15.706 14.029L15.562 14.008L15.43 13.993L15.301 13.984H15.067L14.959 13.993L14.857 14.005L14.767 14.026L14.662 14.056L14.563 14.098L14.473 14.158L14.392 14.224L14.323 14.299L14.263 14.383L14.209 14.479L14.164 14.584L14.125 14.698L14.095 14.824L14.077 14.956L14.065 15.1L14.062 15.25L14.068 15.409L14.083 15.577L14.101 15.757L14.131 15.943L14.167 16.132L14.212 16.333L14.266 16.543L14.326 16.762L14.392 16.981L14.557 17.452L14.647 17.692L14.746 17.941L14.854 18.199L14.974 18.463L15.094 18.733L15.223 19.003L15.364 19.285L15.508 19.567L15.658 19.858L15.817 20.152L15.985 20.452L16.159 20.758L16.339 21.067L16.531 21.379L16.726 21.697L16.927 22.018L17.767 23.347L17.392 24.205L17.377 24.241L17.347 24.307L17.332 24.346L17.302 24.415L17.284 24.445L17.269 24.481L17.254 24.511L17.239 24.547L17.227 24.577L17.197 24.637L17.185 24.667L17.155 24.727L17.146 24.757L17.131 24.787L17.101 24.859L17.086 24.883L17.077 24.904L17.038 24.982L17.008 25.03L17.002 25.042L16.993 25.054L16.978 25.084L16.957 25.105H16.942L16.894 25.057L16.858 25.018L16.819 24.964L16.771 24.904L16.717 24.832L16.657 24.748L16.591 24.658L16.522 24.559L16.372 24.334L16.291 24.214L16.207 24.085L16.117 23.95L16.021 23.803L15.832 23.503L15.634 23.194L15.334 22.714L15.232 22.546L15.133 22.381L15.031 22.219L14.836 21.889L14.737 21.727L14.647 21.568L14.551 21.409L14.377 21.109L14.293 20.959L14.212 20.818L14.137 20.68L14.062 20.551L13.996 20.431L13.876 20.203L13.798 20.059L13.723 19.909L13.651 19.759L13.507 19.453L13.441 19.297L13.306 18.982L13.126 18.502L13.066 18.34L13.012 18.181L12.952 18.022L12.85 17.704L12.802 17.542L12.712 17.23L12.628 16.921L12.556 16.621L12.526 16.471L12.466 16.183L12.442 16.042L12.4 15.772L12.382 15.643L12.37 15.517L12.358 15.397L12.352 15.277V15.163L12.349 15.055L12.352 14.947V14.848L12.37 14.662L12.385 14.581L12.415 14.431L12.436 14.359L12.46 14.287L12.484 14.212L12.508 14.143L12.568 13.999L12.628 13.861L12.7 13.723L12.736 13.663L12.817 13.531L12.859 13.471L12.991 13.291L13.039 13.231L13.135 13.12L13.186 13.069L13.237 13.015L13.288 12.967L13.342 12.916L13.453 12.826L13.507 12.784L13.567 12.742L13.621 12.703L13.735 12.631L13.915 12.541L14.035 12.493L14.155 12.454L14.374 12.409L14.605 12.379L14.845 12.358L15.103 12.355L15.373 12.364L15.655 12.394L15.943 12.433L16.243 12.493L16.555 12.559L16.876 12.64L17.212 12.739L17.554 12.847L17.905 12.973L18.265 13.105L18.637 13.255L19.015 13.417L19.405 13.597L19.795 13.786L20.197 13.984L20.608 14.194L21.022 14.416L21.442 14.65L21.871 14.899L22.306 15.157L22.744 15.427L23.188 15.709L23.638 16.003L24.088 16.303L24.547 16.618L25.009 16.942L25.474 17.278L25.942 17.623L26.416 17.974L26.89 18.34L27.37 18.715L27.85 19.099L28.33 19.489L28.81 19.891L29.29 20.302L29.77 20.722L31.396 22.168L33.631 21.703L33.967 21.643L34.288 21.583L34.444 21.553L34.669 21.508L34.741 21.499L34.879 21.469L34.945 21.457L35.074 21.436L35.194 21.415L35.254 21.406L35.308 21.397L35.413 21.382L35.461 21.376L35.506 21.367L35.551 21.361L35.632 21.349L35.668 21.346H35.698H35.866L35.89 21.34L35.92 21.328L35.944 21.316L35.974 21.298L36.022 21.25L36.043 21.22L36.067 21.19L36.088 21.151L36.109 21.106L36.127 21.058L36.151 21.004L36.172 20.944L36.19 20.878L36.208 20.809L36.226 20.734L36.244 20.653L36.265 20.569L36.28 20.479L36.298 20.383L36.313 20.281L36.331 20.173L36.346 20.053L36.364 19.933L36.379 19.804L36.394 19.672L36.412 19.531L36.427 19.381L36.439 19.231L36.454 19.072L36.469 18.904L36.484 18.73L36.499 18.55L36.514 18.361L36.526 18.166L36.541 17.962L36.556 17.752L36.571 17.533L36.583 17.308L36.601 16.978L36.616 16.648L36.628 16.33L36.646 15.7V14.8L36.64 14.509L36.634 14.221L36.61 13.666L36.595 13.396L36.574 13.132L36.553 12.874L36.529 12.622L36.499 12.376L36.469 12.136L36.439 11.905L36.409 11.68L36.37 11.464L36.334 11.254L36.292 11.053L36.247 10.858L36.202 10.672L36.154 10.492L36.103 10.321L36.052 10.159L35.992 10.003L35.932 9.859L35.872 9.718L35.812 9.592L35.746 9.472L35.68 9.361L35.611 9.259L35.542 9.169L35.47 9.088L35.395 9.016L35.32 8.956L35.239 8.905L35.161 8.866L35.071 8.836L34.981 8.803L34.891 8.788L34.801 8.782L34.711 8.785L34.621 8.803L34.522 8.818L34.42 8.848L34.318 8.884L34.213 8.926L33.997 9.046L33.886 9.118L33.772 9.196L33.658 9.286L33.538 9.382L33.418 9.487L33.298 9.601L33.178 9.721L33.058 9.853L32.926 9.991L32.797 10.135L32.665 10.285L32.53 10.45L32.392 10.618L32.257 10.798L32.116 10.984L31.972 11.176L31.831 11.386L31.681 11.596L31.531 11.812L31.381 12.043L31.231 12.277L31.081 12.517L30.931 12.769L30.772 13.027L30.454 13.567L30.292 13.852L28.876 16.327L27.946 16.447L27.916 16.45L27.88 16.453H27.85H27.814H27.784H27.754H27.724H27.484H27.46H27.439L27.409 16.45H27.388L27.367 16.447L27.307 16.435H27.277L27.247 16.423H27.235L27.205 16.405L27.196 16.399L27.193 16.39L27.187 16.384L27.184 16.372V16.363L27.19 16.327L27.199 16.282L27.217 16.222L27.238 16.156L27.268 16.084L27.298 16L27.334 15.91L27.379 15.814L27.421 15.703L27.472 15.592L27.526 15.472L27.586 15.352L27.646 15.223L27.706 15.091L27.772 14.956L27.844 14.815L27.985 14.521L28.135 14.221L28.213 14.071L28.291 13.915L28.531 13.459L28.615 13.309L28.696 13.159L28.774 13.009L28.858 12.859L29.014 12.577L29.092 12.442L29.167 12.31L29.242 12.184L29.317 12.064L29.386 11.944L29.452 11.836L29.518 11.734L29.578 11.635L29.638 11.545L29.77 11.35L30.034 10.969L30.163 10.789L30.421 10.435L30.67 10.105L30.796 9.943L31.162 9.484L31.282 9.34L31.402 9.202L31.522 9.067L31.642 8.938L31.876 8.692L31.996 8.572L32.224 8.35L32.338 8.248L32.56 8.05L32.782 7.87L32.893 7.786L33.001 7.705L33.121 7.603L33.331 7.468L33.439 7.408L33.544 7.348L33.649 7.294L33.751 7.246L33.859 7.201L33.958 7.156L34.06 7.12L34.162 7.09L34.261 7.06L34.387 7.03L34.453 7.018L34.513 7.012L34.579 7.006L34.711 7H34.78L34.849 7.003L34.915 7.009L34.921 7.012ZM35.041 23.203L34.693 23.272L34.318 23.362L33.958 23.467L33.658 23.569L33.43 23.659L33.295 23.737L33.271 23.797L33.613 24.178L34.123 24.703L34.669 25.237L35.113 25.648L35.323 25.81L35.371 25.732L35.437 25.543L35.515 25.258L35.605 24.898L35.689 24.487L35.773 24.016L35.818 23.647V23.386L35.779 23.218L35.698 23.146L35.566 23.134L35.341 23.152L35.041 23.197V23.203ZM20.431 23.173L19.129 23.677L19.519 22.951C20.023 22 21.259 20.602 22.291 19.819C22.345 19.774 22.615 19.561 23.107 19.174L23.803 19.666C24.184 19.936 24.508 20.197 24.523 20.266C24.538 20.32 24.274 20.566 23.941 20.776C23.593 21.004 22.957 21.526 22.522 21.934C21.97 22.474 21.364 22.828 20.431 23.176V23.173ZM27.901 40.765C24.661 40.333 21.553 38.365 19.69 35.545C18.901 34.339 17.95 31.66 17.89 30.49C17.854 29.785 17.911 29.71 18.619 29.38C19.039 29.191 19.405 29.05 19.447 29.062C19.477 29.092 19.597 29.776 19.687 30.61C20.017 33.298 21.703 35.974 24.055 37.495C25.351 38.353 27.235 38.995 28.609 39.073C29.143 39.103 29.599 39.193 29.608 39.253C29.629 39.328 29.479 39.715 29.278 40.138L28.924 40.918L27.895 40.768L27.901 40.765ZM29.191 17.749C28.606 17.167 31.981 17.599 33.772 18.349C34.798 18.769 34.876 18.829 34.804 19.294C34.75 19.684 33.013 19.855 31.966 19.57C31.216 19.366 30.037 18.592 29.191 17.752V17.749ZM36.625 35.878C37.096 35.38 37.606 34.738 37.735 34.498C38.053 33.868 38.185 33.868 38.563 34.39C38.731 34.654 38.968 34.96 39.085 35.125C39.235 35.317 39.088 35.626 38.596 36.265C37.405 37.825 34.684 39.919 34.912 39.097C35.326 37.747 35.872 36.682 36.628 35.881L36.625 35.878ZM40.075 28.543C39.493 27.823 39.205 27.259 39.004 26.497C38.5 24.616 39.274 22.873 39.976 24.256C40.372 25.006 40.96 27.355 41.047 28.477C41.098 29.026 41.071 29.497 41.017 29.515C40.945 29.533 40.537 29.08 40.078 28.543H40.075Z" fill="url(#paint1_linear_6428_76)"/>
<defs>
<filter id="filter0_f_6428_76" x="0" y="0" width="59.054" height="59.03" filterUnits="userSpaceOnUse" color-interpolation-filters="sRGB">
<feFlood flood-opacity="0" result="BackgroundImageFix"/>
<feBlend mode="normal" in="SourceGraphic" in2="BackgroundImageFix" result="shape"/>
<feGaussianBlur stdDeviation="3.5" result="effect1_foregroundBlur_6428_76"/>
</filter>
<linearGradient id="paint0_linear_6428_76" x1="7" y1="7" x2="4512.4" y2="7" gradientUnits="userSpaceOnUse">
<stop stop-color="#8AB4F8"/>
<stop offset="1" stop-color="#C1A8E2"/>
</linearGradient>
<linearGradient id="paint1_linear_6428_76" x1="7" y1="7" x2="4512.4" y2="7" gradientUnits="userSpaceOnUse">
<stop stop-color="#8AB4F8"/>
<stop offset="1" stop-color="#C1A8E2"/>
</linearGradient>
</defs>
</svg>
