<svg width="48" height="48" viewBox="0 0 48 48" fill="none" xmlns="http://www.w3.org/2000/svg">
<g clip-path="url(#clip0_6428_72)">
<path fill-rule="evenodd" clip-rule="evenodd" d="M30.003 42.269C32.835 41.344 35.437 39.757 37.586 37.615C41.19 34 43.222 29.102 43.222 24C43.222 18.898 41.19 14 37.586 10.385C33.971 6.781 29.072 4.749 23.971 4.749C22.79 4.749 21.832 3.791 21.832 2.61C21.832 1.429 22.79 0.471001 23.971 0.471001C30.206 0.471001 36.195 2.952 40.612 7.359C45.019 11.776 47.5 17.765 47.5 24C47.5 30.235 45.019 36.224 40.612 40.641C36.195 45.048 30.206 47.529 23.971 47.529C18.035 47.529 12.313 45.283 7.96104 41.251C3.60804 37.208 0.94504 31.668 0.50604 25.754C0.41804 24.573 1.30204 23.545 2.47904 23.46C3.65704 23.374 4.68504 24.258 4.77304 25.433C5.13704 30.278 7.30804 34.813 10.87 38.117C13.444 40.507 16.606 42.124 19.997 42.828C19.996 41.357 19.994 40.079 19.992 39.709C14.727 40.887 13.832 37.094 13.832 37.094C12.971 34.841 11.73 34.24 11.73 34.24C10.012 33.031 11.859 33.055 11.859 33.055C13.759 33.192 14.76 35.066 14.76 35.066C16.448 38.046 18.951 37.187 20.029 36.688C20.201 35.428 20.53 34.565 21.07 34.078C16.867 33.586 13 31.912 13 24.439C13 22.311 13.186 20.569 14.396 19.207C14.201 18.714 13.549 16.731 14.58 14.047C16.39 13.962 17.989 15.943 19.6 16.701C21.331 16.197 23.372 15.986 24.941 16C26.528 16.014 28.64 16.259 30.1 16.701C31.318 15.846 33.181 13.935 35.16 14.004L35.465 14.047C36.498 16.731 35.846 18.714 35.652 19.207C36.865 20.569 37 22.311 37 24.439C37 31.932 32.874 33.582 28.658 34.064C29.337 34.667 30.01 35.857 30.01 37.676C30.01 38.478 30.006 40.281 30.003 42.269ZM15.019 6.952C16.064 6.403 16.467 5.109 15.918 4.064C15.369 3.02 14.075 2.617 13.03 3.166C8.58104 5.508 4.98704 9.219 2.79504 13.743C2.27504 14.806 2.71604 16.088 3.77904 16.604C4.84104 17.121 6.12604 16.678 6.64504 15.615C8.44204 11.904 11.372 8.877 15.019 6.952Z" fill="url(#paint0_linear_6428_72)"/>
</g>
<defs>
<linearGradient id="paint0_linear_6428_72" x1="32.0751" y1="1.43898" x2="20.314" y2="45.6472" gradientUnits="userSpaceOnUse">
<stop stop-color="#1A6CFF"/>
<stop offset="1" stop-color="#C522FF"/>
</linearGradient>
<clipPath id="clip0_6428_72">
<rect width="48" height="48" fill="white"/>
</clipPath>
</defs>
</svg>
