<svg width="48" height="48" viewBox="0 0 48 48" fill="none" xmlns="http://www.w3.org/2000/svg">
<path d="M46.5484 23.6325C46.5484 20.748 44.3629 18.3206 41.4289 17.628L48 0.0423737H15.435L22.0212 17.6835C19.1794 18.432 17.0847 20.817 17.0847 23.6471C17.0847 25.7269 18.2314 27.5711 19.9733 28.7081C19.2863 29.5957 18.4909 30.4144 17.5898 31.1906C15.8937 32.6336 14.0127 33.7425 11.9809 34.4779C10.1472 33.3544 9.35292 31.371 10.0707 29.5954C12.867 28.8191 14.9007 26.4476 14.9007 23.6602C14.9007 20.2354 11.8287 17.4607 8.06817 17.4607C4.29342 17.4607 1.2233 20.2485 1.2233 23.6745C1.2233 25.3669 1.98642 26.9194 3.20967 28.0282C3.10242 28.2232 2.99592 28.4164 2.88867 28.6245C1.86492 30.5392 0.703172 32.7026 0.259173 35.13C-0.626952 39.9829 0.824673 43.881 4.32417 46.0856C6.29592 47.3205 8.4668 47.9445 10.8049 47.9445C14.8227 47.9445 18.9038 46.1134 22.8458 44.3377C25.6583 43.0766 28.5615 41.7581 31.4194 41.121C32.4743 40.8851 33.5742 40.746 34.7359 40.5937C37.0883 40.2889 39.5187 39.9697 41.7042 38.8185C44.256 37.4737 45.9979 35.2264 46.503 32.6471C46.8837 30.6634 46.503 28.6669 45.5243 26.9194C46.1929 25.9538 46.5505 24.8069 46.5484 23.6325ZM43.569 23.6325C43.569 25.56 41.8418 27.1275 39.7178 27.1275C37.5938 27.1275 35.8665 25.56 35.8665 23.6325C35.8665 23.0081 36.0499 22.4122 36.3705 21.8992C36.4924 21.7042 36.6462 21.5111 36.798 21.3442C36.959 21.1726 37.1385 21.0193 37.3332 20.8871L37.3493 20.8725C37.4708 20.7892 37.6084 20.7056 37.746 20.6235C37.746 20.6235 37.761 20.6235 37.761 20.6089C37.8222 20.5811 37.8837 20.5399 37.9455 20.5121C37.9602 20.5121 37.9748 20.4975 37.9905 20.4975C38.0524 20.4712 38.1285 20.4435 38.2043 20.4154C38.2766 20.3901 38.348 20.3624 38.4184 20.3321C38.4334 20.3321 38.4492 20.3171 38.4638 20.3171C38.5253 20.3044 38.5868 20.2762 38.6472 20.2631C38.6633 20.2631 38.694 20.2485 38.7087 20.2485C38.7848 20.2354 38.8463 20.2207 38.9224 20.2072H38.9385L39.1673 20.1649C39.183 20.1649 39.2123 20.1649 39.2284 20.1517C39.2899 20.1517 39.3503 20.1371 39.4118 20.1371H39.4879C39.564 20.1371 39.6417 20.124 39.7324 20.124H39.9315C39.9915 20.124 40.0388 20.124 40.0988 20.1371H40.1295C40.2525 20.1521 40.374 20.1649 40.497 20.193C42.2389 20.5252 43.569 21.9405 43.569 23.6325ZM19.6977 2.8155H43.7359L38.2193 17.5856C37.9905 17.628 37.7607 17.6966 37.5323 17.7656L31.7258 7.01812L25.9028 17.6962C25.6729 17.6276 25.4284 17.5852 25.185 17.544L19.6977 2.8155ZM30.624 22.425C30.3342 21.1211 29.6003 19.9567 28.5615 19.0969L31.7258 13.3005L34.9189 19.2214C33.9713 20.0812 33.2839 21.177 33.0087 22.425H30.624ZM22.9688 20.235C23.0449 20.22 23.1064 20.2072 23.1825 20.1926H23.2279C23.2894 20.1795 23.3513 20.1795 23.4113 20.1645H23.4728C23.5343 20.1645 23.5797 20.1514 23.6412 20.1514H24.2374C24.2974 20.1514 24.3443 20.1645 24.3897 20.1645C24.4204 20.1645 24.435 20.1645 24.4658 20.1795C24.5273 20.1926 24.5727 20.1926 24.6345 20.2072C24.6488 20.2072 24.6649 20.2072 24.6957 20.2204C24.7722 20.235 24.8483 20.2481 24.9094 20.2627H24.9244C24.9859 20.2759 25.0474 20.289 25.1074 20.3171C25.1235 20.3171 25.1382 20.3317 25.1689 20.3317C25.2143 20.3449 25.2758 20.3595 25.3212 20.3872C25.3373 20.3872 25.3519 20.4004 25.368 20.4004C25.428 20.4285 25.4899 20.4431 25.5514 20.4709H25.566C25.6422 20.4971 25.7037 20.5249 25.7652 20.5676H25.7802C25.8413 20.5954 25.9028 20.6362 25.9643 20.664C25.9793 20.664 25.9793 20.679 25.9935 20.679C26.055 20.7052 26.1008 20.7476 26.1623 20.7754L26.1784 20.7885C26.3614 20.9134 26.5298 21.0525 26.6967 21.1916L26.7128 21.2047C26.8654 21.357 27.0177 21.5239 27.1407 21.7042C27.5378 22.2592 27.7677 22.9114 27.7677 23.6186C27.7677 25.5465 26.0404 27.1125 23.9164 27.1125C21.7924 27.1125 20.0652 25.5465 20.0652 23.6186C20.0494 21.9956 21.2873 20.6231 22.9688 20.235ZM7.93055 20.1367C10.0549 20.1367 11.7818 21.7042 11.7818 23.6317C11.7818 25.5596 10.0549 27.1267 7.93055 27.1267C5.80655 27.1267 4.0793 25.5596 4.0793 23.6317C4.0793 21.7042 5.80655 20.1367 7.93055 20.1367ZM43.4768 32.1619C43.1412 33.9356 41.9325 35.49 40.1603 36.4185C38.4945 37.293 36.4467 37.5697 34.2919 37.8469C33.1159 37.9991 31.878 38.166 30.6855 38.4296C27.507 39.1372 24.4512 40.5244 21.4864 41.8545C17.6967 43.5611 14.1195 45.1695 10.8049 45.1695C9.07767 45.1695 7.5338 44.7259 6.06755 43.797C2.70567 41.6891 2.87255 37.737 3.27117 35.5732C3.63717 33.5475 4.6613 31.6477 5.63967 29.8312C5.69967 29.7199 5.74655 29.6231 5.80655 29.5117C6.14367 29.6231 6.49505 29.7067 6.86142 29.7622C6.2813 32.7022 7.93055 35.739 11.1402 37.2375L11.7214 37.5142L12.3473 37.3061C15.0222 36.4462 17.4975 35.046 19.683 33.1736C20.9209 32.1191 21.9758 30.9825 22.8619 29.7476C23.2133 29.8035 23.565 29.8181 23.9164 29.8181C27.0953 29.8181 29.7687 27.8344 30.5333 25.1715H33.0998C33.8644 27.8479 36.5389 29.8177 39.7178 29.8177C40.9864 29.8177 42.1628 29.499 43.1704 28.9582C43.569 29.9981 43.6905 31.0792 43.4768 32.1619Z" fill="#99425B"/>
</svg>
