<svg width="48" height="48" viewBox="0 0 48 48" fill="none" xmlns="http://www.w3.org/2000/svg">
<g clip-path="url(#clip0_4447_2192)">
<path d="M0.527954 0.528H47.472V47.4724H0.527954V0.528Z" fill="#F0DB4F"/>
<path d="M43.6301 36.276C43.2862 34.1344 41.8897 32.3355 37.7531 30.6581C36.3161 29.9977 34.7141 29.5249 34.2367 28.4359C34.0672 27.8021 34.0447 27.4451 34.1519 27.0615C34.4598 25.8165 35.9459 25.4284 37.1238 25.7854C37.8824 26.0396 38.6006 26.6243 39.0337 27.5569C41.0594 26.2451 41.0553 26.2538 42.4698 25.3523C41.9519 24.5494 41.6756 24.1789 41.3366 23.8354C40.1182 22.4745 38.4581 21.7736 35.8031 21.8272L34.4201 22.0061C33.0948 22.341 31.8318 23.0366 31.0912 23.9692C28.869 26.4907 29.5027 30.9038 32.2068 32.7199C34.8708 34.7194 38.7843 35.1743 39.2842 37.044C39.7706 39.333 37.602 40.074 35.4465 39.8108C33.858 39.4804 32.9745 38.673 32.0193 37.2049C30.2613 38.2223 30.2613 38.2223 28.4538 39.2618C28.8825 40.1989 29.3328 40.623 30.0513 41.4349C33.4518 44.8841 41.9613 44.7146 43.4876 39.4939C43.5494 39.3146 43.9604 38.1191 43.6301 36.276ZM26.0482 22.1036H21.6573L21.6393 33.4556C21.6393 35.8699 21.7642 38.0831 21.3716 38.7615C20.7292 40.0958 19.0646 39.9304 18.306 39.6716C17.5338 39.2921 17.1412 38.7525 16.6863 37.9898C16.5615 37.7708 16.4677 37.6013 16.4362 37.5881L12.8662 39.7744C13.4598 40.9928 14.3343 42.0503 15.4545 42.7373C17.1277 43.7415 19.3766 44.0494 21.7286 43.5094C23.2593 43.0635 24.5801 42.1399 25.2716 40.734C26.2713 38.8909 26.0568 36.66 26.0478 34.1925C26.0703 30.1669 26.0482 26.142 26.0482 22.1036Z" fill="#323330"/>
</g>
<defs>
<clipPath id="clip0_4447_2192">
<rect width="48" height="48" fill="white"/>
</clipPath>
</defs>
</svg>
