<svg width="48" height="48" viewBox="0 0 48 48" fill="none" xmlns="http://www.w3.org/2000/svg">
<g clip-path="url(#clip0_4447_2183)">
<path d="M24 0C17.6348 0 11.5303 2.52856 7.02944 7.02944C2.52856 11.5303 0 17.6348 0 24C0 30.3652 2.52856 36.4697 7.02944 40.9706C11.5303 45.4714 17.6348 48 24 48C28.7426 47.9906 33.3761 46.5764 37.3155 43.9358L17.6302 18.5025V33.5918H14.4V14.4H18.438L39.8599 41.994C42.4155 39.7438 44.4631 36.9755 45.8666 33.8731C47.2701 30.7707 47.9973 27.4051 48 24C48 17.6348 45.4714 11.5303 40.9706 7.02944C36.4697 2.52856 30.3652 0 24 0ZM30.6664 14.4H33.8666V32.691L30.6664 28.4888V14.4ZM39.7339 42.12L39.6922 42.156C39.7061 42.144 39.72 42.132 39.7339 42.12Z" fill="white"/>
</g>
<defs>
<clipPath id="clip0_4447_2183">
<rect width="48" height="48" fill="white"/>
</clipPath>
</defs>
</svg>
