<svg width="48" height="48" viewBox="0 0 48 48" fill="none" xmlns="http://www.w3.org/2000/svg">
<path fill-rule="evenodd" clip-rule="evenodd" d="M41.8614 1.60267C43.7947 2.62675 45.3748 4.20715 46.3965 6.13867C47.4428 8.09467 48 10.0347 48 15.3827V24.776C48 24.8973 47.9266 25.0065 47.8144 25.0529C47.7021 25.0993 47.5729 25.0737 47.4869 24.988V24.9867L43.9392 21.44C43.6575 21.1583 43.4994 20.7766 43.4996 20.3787V16.0373C43.4996 12.0253 43.0813 10.5707 42.297 9.104C41.5304 7.65553 40.3451 6.47047 38.8949 5.70267C37.4445 4.9256 36.0046 4.50883 32.0884 4.50014L26.2235 4.5C26.1022 4.49936 25.9932 4.42607 25.947 4.31416C25.9009 4.20224 25.9267 4.07362 26.0124 3.988L29.56 0.44C29.8407 0.158667 30.2228 0 30.621 0H32.616C37.9649 0 39.9051 0.557333 41.8614 1.60267ZM34.5001 7.5C37.8139 7.5 40.4997 10.1867 40.4997 13.5V17.2987C40.4992 17.4184 40.4273 17.5262 40.317 17.5732C40.2067 17.6201 40.0789 17.5972 39.992 17.5147L35.1548 12.8907C34.8341 12.5707 34.46 12.3387 34.0605 12.1933C33.7215 12.0652 33.362 11.9997 32.9995 12H18.7206C18.599 11.9999 18.4895 11.9268 18.443 11.8148C18.3966 11.7027 18.4222 11.5738 18.5081 11.488L22.0611 7.93867C22.3417 7.65867 22.7226 7.5 23.1208 7.5H34.5001Z" fill="#E55638"/>
<path fill-rule="evenodd" clip-rule="evenodd" d="M44.0113 26.0133L47.5604 29.5613C47.841 29.8427 48 30.2253 48 30.6227V32.6187C48 37.9667 47.4428 39.9067 46.3965 41.8627C45.3747 43.7942 43.7946 45.3746 41.8613 46.3987C39.9051 47.4427 37.9649 48 32.616 48H23.2236C23.1023 47.9994 22.9933 47.9261 22.9472 47.8142C22.901 47.7022 22.9268 47.5736 23.0125 47.488V47.4893L26.5602 43.9413C26.8408 43.66 27.223 43.5013 27.6212 43.5013H31.9626C35.9739 43.5013 37.4277 43.084 38.8949 42.2987C40.345 41.5309 41.5303 40.3458 42.2969 38.8973C43.0813 37.4307 43.4996 35.976 43.4996 31.964V26.2253C43.5002 26.1047 43.5732 25.9961 43.6849 25.9498C43.7966 25.9036 43.9252 25.9286 44.0113 26.0133ZM36.5124 18.512L40.0614 22.064C40.342 22.3453 40.4997 22.7267 40.4997 23.1253V34.504C40.4997 37.8173 37.8139 40.504 34.5001 40.504H30.7012C30.5812 40.5034 30.4731 40.4318 30.426 40.3217C30.379 40.2116 30.402 40.0841 30.4847 39.9973V39.996L35.108 35.1573C35.4287 34.8373 35.6612 34.464 35.8069 34.064C35.9346 33.7251 35.9998 33.366 35.9993 33.004V18.724C35.9994 18.6027 36.0727 18.4935 36.1849 18.4471C36.2972 18.4007 36.4264 18.4263 36.5124 18.512Z" fill="#F4C942"/>
<path fill-rule="evenodd" clip-rule="evenodd" d="M0.511775 23.012L4.06213 26.56C4.34274 26.8413 4.50175 27.224 4.50175 27.6213V31.9627C4.50175 35.9747 4.91866 37.4293 5.70436 38.896C6.47062 40.3443 7.65544 41.5293 9.10506 42.2973C10.5722 43.0827 12.0274 43.5 16.0387 43.5H21.7765C21.8983 43.4996 22.0083 43.5725 22.0551 43.6846C22.1019 43.7968 22.0764 43.926 21.9903 44.012L18.44 47.56C18.1593 47.8413 17.7772 48 17.3803 48H15.384C10.0351 48 8.09621 47.4427 6.13997 46.3973C4.20618 45.3735 2.62559 43.793 1.60347 41.8613C0.56767 39.9249 0.011193 38.0041 0.000167095 32.7768L0 23.224C0.000638242 23.1033 0.0736771 22.9948 0.185373 22.9485C0.297068 22.9022 0.425674 22.9273 0.511775 23.012ZM8.00802 30.4853H8.00668L12.8465 35.1093C13.1659 35.4293 13.5413 35.6613 13.9395 35.8067C14.2682 35.932 14.6264 36 15.0005 36H29.2794C29.4007 36.0006 29.5097 36.0739 29.5559 36.1858C29.602 36.2978 29.5763 36.4264 29.4906 36.512L25.9389 40.0613C25.6583 40.3413 25.2761 40.5 24.8792 40.5H13.4999C11.9069 40.4982 10.3799 39.8651 9.25474 38.7399C8.12959 37.6147 7.49848 36.0895 7.50025 34.5V30.7013C7.50083 30.5816 7.57265 30.4738 7.68299 30.4268C7.79333 30.3799 7.92107 30.4028 8.00802 30.4853Z" fill="#7B8FEA"/>
<path fill-rule="evenodd" clip-rule="evenodd" d="M17.2988 7.5C17.4188 7.50058 17.5269 7.57225 17.5739 7.68235C17.621 7.79245 17.598 7.91991 17.5153 8.00667L12.8906 12.8467C12.5699 13.1667 12.3387 13.54 12.1931 13.94C12.0649 14.2788 11.9993 14.6379 11.9993 15V29.28C11.9982 29.4004 11.9249 29.5085 11.8133 29.5544C11.7018 29.6004 11.5735 29.5752 11.4876 29.4907L7.93853 25.9387C7.65764 25.6571 7.50004 25.2759 7.50025 24.8787V13.5C7.50025 10.1867 10.1861 7.5 13.4999 7.5H17.2988ZM24.7763 0C24.8976 0.000642634 25.0066 0.0739307 25.0528 0.185844C25.0989 0.297756 25.0732 0.426377 24.9875 0.512L21.4398 4.06C21.1578 4.34133 20.777 4.5 20.3788 4.5H16.0374C12.0261 4.5 10.5709 4.91733 9.10372 5.70267C7.65361 6.47047 6.46831 7.65553 5.70169 9.104C4.92558 10.5552 4.50793 11.9947 4.49922 15.9115L4.49908 21.776C4.49844 21.8967 4.4254 22.0052 4.31371 22.0515C4.20201 22.0978 4.07341 22.0727 3.98731 21.988L0.440955 18.44C0.158757 18.1586 0 17.7768 0 17.3787V15.3827C0 10.0347 0.557207 8.09467 1.60347 6.13867C2.62523 4.20715 4.20533 2.62675 6.13863 1.60267C8.07531 0.567787 9.99627 0.0111955 15.2233 0.00016713L24.7763 0Z" fill="#D97EE8"/>
</svg>
