<svg width="48" height="42" viewBox="0 0 48 42" fill="none" xmlns="http://www.w3.org/2000/svg">
<path d="M24 25.275C26.361 25.275 28.275 23.361 28.275 21C28.275 18.639 26.361 16.725 24 16.725C21.639 16.725 19.725 18.639 19.725 21C19.725 23.361 21.639 25.275 24 25.275Z" fill="#61DAFB"/>
<path d="M40.2375 13.95C39.4125 13.65 38.55 13.35 37.65 13.0875C37.875 12.1875 38.0625 11.2875 38.2125 10.425C39 5.475 38.1375 1.9875 35.7375 0.637498C35.025 0.224998 34.2375 0.0374985 33.3375 0.0374985C30.7125 0.0374985 27.375 1.9875 24 5.25C20.625 1.9875 17.2875 0.0374985 14.6625 0.0374985C13.7625 0.0374985 12.975 0.224998 12.2625 0.637498C9.86252 2.025 9.00002 5.5125 9.78752 10.425C9.93752 11.2875 10.125 12.1875 10.35 13.0875C9.45002 13.35 8.58752 13.6125 7.76252 13.95C3.07502 15.75 0.525024 18.225 0.525024 21C0.525024 23.775 3.11252 26.25 7.76252 28.05C8.58752 28.35 9.45002 28.65 10.35 28.9125C10.125 29.8125 9.93752 30.7125 9.78752 31.575C9.00002 36.525 9.86252 40.0125 12.2625 41.3625C12.975 41.775 13.7625 41.9625 14.6625 41.9625C17.325 41.9625 20.6625 40.0125 24 36.75C27.375 40.0125 30.7125 41.9625 33.3375 41.9625C34.2375 41.9625 35.025 41.775 35.7375 41.3625C38.1375 39.975 39 36.4875 38.2125 31.575C38.0625 30.7125 37.875 29.8125 37.65 28.9125C38.55 28.65 39.4125 28.3875 40.2375 28.05C44.925 26.25 47.475 23.775 47.475 21C47.475 18.225 44.925 15.75 40.2375 13.95ZM34.6875 2.5125C36.225 3.4125 36.75 6.1875 36.1125 10.125C36 10.9125 35.8125 11.7375 35.5875 12.6C33.6375 12.15 31.575 11.85 29.4 11.6625C28.125 9.8625 26.8125 8.25 25.5 6.7875C28.275 4.05 31.0875 2.175 33.375 2.175C33.8625 2.175 34.3125 2.2875 34.6875 2.5125ZM30.4875 24.75C29.8125 25.95 29.025 27.15 28.2 28.35C26.8125 28.4625 25.425 28.5 24 28.5C22.5375 28.5 21.15 28.4625 19.8 28.35C18.975 27.15 18.225 25.95 17.55 24.75C16.8375 23.5125 16.1625 22.2375 15.5625 21C16.1625 19.7625 16.8375 18.4875 17.55 17.25C18.225 16.05 19.0125 14.85 19.8375 13.65C21.225 13.5375 22.6125 13.5 24.0375 13.5C25.5 13.5 26.8875 13.5375 28.2375 13.65C29.0625 14.85 29.8125 16.05 30.4875 17.25C31.2 18.4875 31.875 19.7625 32.475 21C31.8375 22.2375 31.2 23.475 30.4875 24.75ZM33.6 23.5125C34.1625 24.825 34.6125 26.1 35.025 27.375C33.75 27.675 32.4 27.9 30.975 28.0875C31.425 27.375 31.9125 26.625 32.325 25.8375C32.775 25.05 33.1875 24.2625 33.6 23.5125ZM24 33.675C23.1 32.7 22.2375 31.65 21.4125 30.5625C22.275 30.6 23.1375 30.6375 24 30.6375C24.8625 30.6375 25.725 30.6 26.5875 30.5625C25.7625 31.65 24.9 32.7 24 33.675ZM17.025 28.05C15.6 27.8625 14.25 27.6375 12.975 27.3375C13.3875 26.1 13.8375 24.7875 14.4 23.475C14.8125 24.225 15.225 25.0125 15.675 25.7625C16.125 26.5875 16.575 27.3 17.025 28.05ZM14.4 18.4875C13.8375 17.175 13.3875 15.9 12.975 14.625C14.25 14.325 15.6 14.1 17.025 13.9125C16.575 14.625 16.0875 15.375 15.675 16.1625C15.225 16.95 14.8125 17.7375 14.4 18.4875ZM24 8.325C24.9 9.3 25.7625 10.35 26.5875 11.4375C25.725 11.4 24.8625 11.3625 24 11.3625C23.1375 11.3625 22.275 11.4 21.4125 11.4375C22.2375 10.35 23.1 9.3 24 8.325ZM32.325 16.2L30.975 13.95C32.4 14.1375 33.75 14.3625 35.025 14.6625C34.6125 15.9 34.1625 17.2125 33.6 18.525C33.1875 17.7375 32.775 16.95 32.325 16.2ZM11.8875 10.125C11.25 6.1875 11.775 3.4125 13.3125 2.5125C13.6875 2.2875 14.1375 2.175 14.625 2.175C16.875 2.175 19.6875 4.0125 22.5 6.7875C21.1875 8.2125 19.875 9.8625 18.6 11.6625C16.425 11.85 14.3625 12.1875 12.4125 12.6C12.1875 11.7375 12.0375 10.9125 11.8875 10.125ZM2.62502 21C2.62502 19.2375 4.76252 17.3625 8.51252 15.975C9.26252 15.675 10.0875 15.4125 10.9125 15.1875C11.5125 17.0625 12.2625 19.05 13.1625 21.0375C12.2625 23.025 11.475 24.975 10.9125 26.85C5.73752 25.35 2.62502 23.1 2.62502 21ZM13.3125 39.4875C11.775 38.5875 11.25 35.8125 11.8875 31.875C12 31.0875 12.1875 30.2625 12.4125 29.4C14.3625 29.85 16.425 30.15 18.6 30.3375C19.875 32.1375 21.1875 33.75 22.5 35.2125C19.725 37.95 16.9125 39.825 14.625 39.825C14.1375 39.825 13.6875 39.7125 13.3125 39.4875ZM36.1125 31.875C36.75 35.8125 36.225 38.5875 34.6875 39.4875C34.3125 39.7125 33.8625 39.825 33.375 39.825C31.125 39.825 28.3125 37.9875 25.5 35.2125C26.8125 33.7875 28.125 32.1375 29.4 30.3375C31.575 30.15 33.6375 29.8125 35.5875 29.4C35.8125 30.2625 35.9625 31.0875 36.1125 31.875ZM39.4875 26.025C38.7375 26.325 37.9125 26.5875 37.0875 26.8125C36.4875 24.9375 35.7375 22.95 34.8375 20.9625C35.7375 18.975 36.525 17.025 37.0875 15.15C42.2625 16.65 45.375 18.9 45.375 21C45.375 22.7625 43.2 24.6375 39.4875 26.025Z" fill="#61DAFB"/>
</svg>
