<svg width="48" height="46" viewBox="0 0 48 46" fill="none" xmlns="http://www.w3.org/2000/svg">
<path d="M33.2587 32.0412C29.8837 38.9412 23.9737 43.5837 16.1549 45.11C14.9561 45.4037 13.7254 45.5473 12.4912 45.5375C7.9912 45.5375 3.8662 43.6625 1.8637 40.5912C-0.825054 36.5 -1.74005 27.8262 7.12495 21.41C7.30495 22.3887 7.67245 23.7312 7.9162 24.5262C6.17594 25.8191 4.75148 27.4897 3.74995 29.4125C2.09995 32.6525 2.2837 35.8887 4.23745 38.8812C5.58745 40.8987 7.72495 42.125 10.4737 42.5C13.907 42.9345 17.3899 42.2786 20.4299 40.625C25.1962 38.12 28.3724 35.1275 30.4499 31.0362C29.8625 30.4292 29.5148 29.6299 29.4712 28.7862C29.4398 27.8809 29.7688 27.0002 30.3861 26.3372C31.0034 25.6742 31.8585 25.2832 32.7637 25.25H32.8912C33.7717 25.2456 34.6202 25.5798 35.2611 26.1835C35.902 26.7873 36.2863 27.6143 36.3345 28.4935C36.3827 29.3726 36.091 30.2367 35.5199 30.9068C34.9488 31.577 34.1419 32.0019 33.2662 32.0937L33.2587 32.0412ZM44.0099 24.4662C48.5887 29.6562 48.7125 35.765 46.9425 39.3087C45.2924 42.545 40.9425 45.785 35.0924 45.785C32.3616 45.7293 29.6751 45.0832 27.2174 43.8912C28.0762 43.28 29.295 42.3012 29.9662 41.69C31.8614 42.511 33.901 42.947 35.9662 42.9725C39.7537 42.9725 42.6225 41.2025 44.3325 37.9662C45.4312 35.8287 45.495 33.3237 44.4562 30.7587C43.1816 27.5314 40.9135 24.7932 37.9799 22.94C34.1312 20.3455 29.594 18.9624 24.9524 18.9687H23.8537C23.5975 19.5606 23.1807 20.0689 22.6505 20.436C22.1203 20.8032 21.4978 21.0146 20.8537 21.0462H20.7374C19.8465 21.0353 18.9949 20.6774 18.3636 20.0487C17.7323 19.42 17.3709 18.5699 17.3562 17.679C17.3416 16.7881 17.6748 15.9266 18.2852 15.2775C18.8955 14.6284 19.7348 14.2427 20.6249 14.2025H20.7487C21.369 14.203 21.9771 14.3743 22.5064 14.6978C23.0356 15.0213 23.4654 15.4844 23.7487 16.0362H24.7274C32.5275 16.0362 39.375 19.0287 44.0099 24.4662ZM12.9787 33.0912C12.9145 32.4685 13.0653 31.8426 13.4062 31.3175C9.9862 25.3925 8.1562 17.8812 10.9649 10.0625C12.9787 4.18625 18.0487 0.214996 23.5462 0.214996C29.4112 0.214996 35.5199 5.34875 36.2512 15.2412C35.3362 14.9375 34.0012 14.4912 33.1987 14.3262C33 11.09 30.2662 3.0275 23.7899 3.1475C21.4687 3.21125 18.0487 4.31 16.2899 6.56749C14.1144 9.26232 12.8489 12.5772 12.6749 16.0362C12.2627 20.7791 13.3755 25.5298 15.8512 29.5962C15.9879 29.5463 16.1336 29.5259 16.2787 29.5362H16.3987C17.3057 29.5198 18.1821 29.8644 18.8351 30.4942C19.4881 31.124 19.8642 31.9873 19.8806 32.8944C19.897 33.8014 19.5524 34.6778 18.9226 35.3308C18.2929 35.9838 17.4295 36.3598 16.5224 36.3762H16.3987C15.5138 36.3731 14.6643 36.0286 14.0271 35.4145C13.39 34.8004 13.0144 33.9642 12.9787 33.08V33.0912Z" fill="#764ABC"/>
</svg>
