<svg width="38" height="48" viewBox="0 0 38 48" fill="none" xmlns="http://www.w3.org/2000/svg">
<path d="M35.2548 0.754498L32.6621 0.916123L32.8642 6.3075C32.8747 6.60563 32.5308 6.77963 32.2964 6.59475L30.5602 5.226L28.5033 6.78675C28.4503 6.82697 28.387 6.85128 28.3207 6.85684C28.2545 6.8624 28.188 6.84897 28.1291 6.81813C28.0701 6.78729 28.0212 6.74032 27.988 6.6827C27.9548 6.62508 27.9387 6.55919 27.9416 6.49275L28.1729 1.19662L2.45243 2.805C1.8406 2.84312 1.26791 3.11891 0.856633 3.57349C0.445354 4.02807 0.228075 4.62542 0.251183 5.238L1.69868 43.8023C1.72078 44.3915 1.96366 44.9508 2.3791 45.3693C2.79453 45.7877 3.35214 46.0346 3.94118 46.0609L35.2957 47.4686C35.6126 47.4826 35.9291 47.4324 36.2262 47.3209C36.5232 47.2094 36.7946 47.039 37.0241 46.8199C37.2536 46.6008 37.4362 46.3374 37.561 46.0457C37.6858 45.754 37.7501 45.4399 37.7501 45.1226V3.099C37.7502 2.77812 37.6846 2.46062 37.5572 2.16612C37.4298 1.87161 37.2434 1.60636 37.0094 1.38675C36.7757 1.16702 36.4994 0.997544 36.1976 0.888798C35.8958 0.780052 35.575 0.734344 35.2548 0.754498ZM19.7073 8.69963C25.8228 8.69963 29.1626 11.9708 29.1626 18.1943C28.3361 18.8366 22.1801 19.2743 22.1801 18.3604C22.3098 14.8729 20.7487 14.7203 19.8813 14.7203C19.0571 14.7203 17.6692 14.9685 17.6692 16.8368C17.6692 21.4448 29.5529 21.1961 29.5529 30.4958C29.5529 35.727 25.3023 38.6164 19.8813 38.6164C14.2863 38.6164 9.39743 36.3529 9.94943 28.5053C10.1662 27.5839 17.2788 27.8029 17.2788 28.5053C17.1926 31.7434 17.9294 32.6959 19.7939 32.6959C21.2253 32.6959 21.8763 31.9073 21.8763 30.5786C21.8763 25.8458 10.1662 25.68 10.1662 17.0033C10.1662 12.0214 13.5926 8.69963 19.7073 8.69963Z" fill="#FF4785"/>
</svg>
