<svg width="48" height="48" viewBox="0 0 48 48" fill="none" xmlns="http://www.w3.org/2000/svg">
<path d="M27.0751 44.4C27.1381 44.2575 27.2971 44.1585 27.4126 44.0385C29.1751 42.1905 30.9526 40.359 32.6911 38.4885C33.2351 37.9861 33.6555 37.3646 33.9193 36.6726C34.1832 35.9807 34.2834 35.2371 34.2121 34.5C34.1575 34.1844 34.0859 33.8719 33.9976 33.564C33.5236 34.014 33.0826 34.4235 32.6386 34.836C31.9486 35.478 31.2616 36.123 30.5656 36.7575C30.1552 37.1759 29.6275 37.46 29.0522 37.5723C28.4769 37.6845 27.8811 37.6195 27.3436 37.386C26.7994 37.1861 26.3259 36.8307 25.9819 36.3641C25.6379 35.8974 25.4385 35.34 25.4086 34.761C25.3924 34.6865 25.3709 34.6133 25.3441 34.542C24.8146 34.992 24.3076 35.406 23.8051 35.832L13.3606 44.682C13.2886 44.7435 13.2106 44.82 13.1431 44.88H27.0676L27.0466 44.8665C26.9716 44.814 27.0106 44.538 27.0751 44.4Z" fill="#FFCEBF"/>
<path d="M12.5055 44.4C12.6294 44.2387 12.7789 44.0989 12.948 43.986L27.402 31.7235C28.388 30.8865 29.3695 30.045 30.3465 29.199C30.4672 29.1148 30.5618 28.9984 30.6195 28.863C30.8532 27.8446 30.8863 26.7905 30.717 25.7595C30.567 25.8645 30.486 25.9095 30.417 25.983C29.2335 27.042 28.056 28.11 26.8665 29.163C26.4725 29.5596 25.9628 29.821 25.4108 29.9097C24.8588 29.9984 24.2929 29.9097 23.7945 29.6565C23.286 29.4164 22.8604 29.0305 22.5719 28.5478C22.2835 28.0652 22.1451 27.5076 22.1745 26.946C22.1745 26.8185 22.1745 26.6925 22.1745 26.46C21.957 26.619 21.798 26.7255 21.6495 26.8455C15.8645 31.4775 10.0805 36.106 4.29752 40.731C4.03652 40.9395 3.72452 41.4045 3.38252 40.953C3.04052 40.5015 3.56102 40.3155 3.82352 40.1055C9.98852 35.1585 16.1565 30.216 22.3275 25.278C23.3325 24.4725 23.3985 24.135 22.7445 22.8555L22.3545 23.2215C21.285 24.216 20.2035 25.197 19.1505 26.208C18.7186 26.6246 18.1776 26.9106 17.5901 27.0329C17.0025 27.1552 16.3924 27.1088 15.8301 26.8991C15.2678 26.6894 14.7762 26.3249 14.4122 25.8478C14.0483 25.3706 13.8267 24.8002 13.773 24.2025C13.5735 24.3525 13.401 24.462 13.2375 24.5895L4.08752 31.6815C3.9297 31.8363 3.74973 31.9667 3.55352 32.0685C3.40543 32.1133 3.2464 32.1053 3.10352 32.046V44.8875H12.4875C12.4526 44.8104 12.4361 44.7262 12.4392 44.6416C12.4423 44.557 12.465 44.4743 12.5055 44.4Z" fill="#FFCEBF"/>
<path d="M37.8556 3.6345C37.6006 4.47 37.3531 5.307 37.1296 6.1515C36.9232 6.74829 36.9472 7.40068 37.1969 7.98068C37.4467 8.56067 37.9042 9.02641 38.4796 9.2865C40.2397 10.2117 42.2231 10.6273 44.2066 10.4865V3.777C44.1846 3.6299 44.1927 3.47985 44.2306 3.336C44.2726 3.25464 44.3256 3.17943 44.3881 3.1125H37.8496C37.9501 3.2295 37.9156 3.435 37.8556 3.6345Z" fill="#FF6196"/>
<path d="M24.7229 18.048C24.6918 18.7969 24.4299 19.5178 23.9729 20.112C22.3395 22.2206 20.4636 24.1297 18.3839 25.8C18.0486 26.1104 17.6235 26.3067 17.1697 26.3606C16.7159 26.4145 16.2567 26.3232 15.8579 26.1C15.461 25.9304 15.1264 25.6421 14.9 25.2747C14.6736 24.9073 14.5665 24.4787 14.5934 24.048C14.6415 23.519 14.8611 23.0201 15.2189 22.6275C17.5444 20.4101 20.064 18.4055 22.7474 16.638C22.9232 16.5002 23.1378 16.4211 23.361 16.412C23.5841 16.4028 23.8045 16.464 23.9909 16.587C24.236 16.7392 24.4341 16.9562 24.5633 17.2141C24.6925 17.472 24.7478 17.7606 24.7229 18.048Z" fill="#FF87AF"/>
<path d="M22.9259 27.1395C22.891 26.8079 22.9336 26.4728 23.0502 26.1605C23.1668 25.8482 23.3543 25.5671 23.5979 25.3395C25.8748 23.2394 28.3178 21.3266 30.9028 19.62C30.9808 19.5705 31.0529 19.521 31.1384 19.47C31.3642 19.307 31.6377 19.2237 31.9161 19.2332C32.1944 19.2427 32.4617 19.3445 32.6758 19.5225C32.8831 19.698 33.0297 19.9344 33.0948 20.198C33.16 20.4617 33.1404 20.7391 33.0388 20.991C32.7118 22.0803 32.1082 23.0663 31.2868 23.853C29.6293 25.503 27.9089 27.099 26.1869 28.683C25.9261 28.9512 25.5835 29.125 25.2131 29.1771C24.8427 29.2293 24.4655 29.1568 24.1409 28.971C23.7997 28.7937 23.5092 28.5326 23.2967 28.2123C23.0841 27.8919 22.9565 27.5227 22.9259 27.1395Z" fill="#FF87AF"/>
<path d="M33.75 28.131C33.33 28.581 32.898 29.01 32.4945 29.4705C32.3732 29.6485 32.2725 29.8397 32.1945 30.0405C32.4165 30.1065 32.676 30.2805 32.856 30.219C33.7725 29.9115 34.6665 29.5425 35.673 29.154C35.454 29.658 35.289 30.123 35.0565 30.549C34.0987 32.1587 32.8992 33.6117 31.5 34.857C30.968 35.37 30.4155 35.8605 29.8425 36.3285C29.5391 36.5803 29.1742 36.747 28.7852 36.8115C28.3962 36.876 27.997 36.8361 27.6285 36.6957C27.26 36.5553 26.9355 36.3196 26.688 36.0126C26.4405 35.7056 26.279 35.3384 26.22 34.9485C26.196 34.7317 26.2151 34.5123 26.2764 34.303C26.3377 34.0937 26.4399 33.8986 26.577 33.729C28.6183 31.5124 30.9511 29.5833 33.5115 27.9945C33.5427 27.9824 33.5756 27.9758 33.609 27.975L33.75 28.131Z" fill="#FF87AF"/>
<path d="M37.1909 22.1565L39.7574 10.7565L41.5574 11.178L40.6289 13.9995C39.7619 16.6245 38.8844 19.2495 38.0384 21.8775C37.8734 22.3635 37.6574 22.4535 37.1909 22.1565Z" fill="#FF6196"/>
<path d="M34.293 28.8615C34.5645 27.825 34.8345 26.8665 35.0625 25.8975C35.2847 24.9578 35.7073 24.0772 36.3015 23.316C36.666 22.8375 37.0755 23.028 37.494 23.1315C37.881 23.226 37.9785 23.5095 37.995 23.8815C38.056 24.9102 37.7427 25.9263 37.113 26.742C36.3633 27.6714 35.3942 28.3998 34.293 28.8615Z" fill="#FF6196"/>
<path d="M44.9895 4.341C45.0119 4.00693 45.0033 3.6715 44.964 3.339C44.933 3.24613 44.8717 3.16635 44.79 3.1125C44.7234 3.05836 44.6455 3.01991 44.562 3C44.514 2.991 44.4465 3.0405 44.382 3.111C44.3195 3.17793 44.2665 3.25314 44.2245 3.3345C44.1866 3.47835 44.1784 3.6284 44.2005 3.7755V10.4835C42.217 10.6243 40.2336 10.2087 38.4735 9.2835C37.898 9.02341 37.4406 8.55767 37.1908 7.97768C36.941 7.39768 36.917 6.74529 37.1235 6.1485C37.347 5.304 37.5945 4.467 37.8495 3.6315C37.9095 3.432 37.944 3.2265 37.8495 3.1095C37.7969 3.05255 37.7243 3.01814 37.647 3.0135C37.5479 3.01457 37.4519 3.04832 37.374 3.1095C37.2618 3.1766 37.1724 3.27591 37.1175 3.3945C36.8175 4.2945 36.5535 5.2035 36.324 6.1215C36.2373 6.48326 36.214 6.85728 36.255 7.227C36.313 7.89596 36.5618 8.53422 36.9718 9.06599C37.3818 9.59777 37.9358 10.0007 38.568 10.227C38.8515 10.3455 39.018 10.4625 38.9385 10.836C38.829 11.31 38.7225 11.784 38.6145 12.2595C37.8795 15.4815 37.1485 18.705 36.4215 21.93C36.401 22.0738 36.3377 22.2081 36.24 22.3155C35.7608 22.6964 35.3582 23.1646 35.0535 23.6955C34.6652 24.3961 34.3965 25.1565 34.2585 25.9455C34.232 26.1972 34.141 26.4378 33.9944 26.644C33.8478 26.8503 33.6505 27.0153 33.4215 27.123C32.796 27.4395 32.2215 27.849 31.527 28.275C31.5733 27.4398 31.5643 26.6025 31.5 25.7685C31.4471 25.512 31.4583 25.2463 31.5326 24.9952C31.6069 24.744 31.742 24.515 31.926 24.3285C32.8408 23.4222 33.4929 22.2849 33.813 21.0375C33.9086 20.7484 33.9348 20.4408 33.8895 20.1396C33.8442 19.8385 33.7287 19.5522 33.5523 19.304C33.3759 19.0557 33.1435 18.8524 32.8741 18.7106C32.6046 18.5688 32.3055 18.4924 32.001 18.4875C31.508 18.482 31.0239 18.6196 30.6075 18.8835C29.172 19.8525 27.7755 20.8815 26.3895 21.9225C25.569 22.5405 24.7965 23.2245 24.0015 23.8725C23.9672 23.8357 23.9375 23.7949 23.913 23.751C23.8978 23.6406 23.868 23.5326 23.8245 23.43C23.16 22.404 23.6205 21.6585 24.342 20.892C25.0936 20.1041 25.509 19.0544 25.5 17.9655C25.5233 17.4107 25.3495 16.8655 25.0095 16.4265C24.8283 16.2037 24.6051 16.0186 24.3525 15.882C23.9937 15.6856 23.5834 15.6037 23.1767 15.6471C22.7699 15.6905 22.3862 15.8573 22.077 16.125L21.6585 16.425C20.703 17.109 19.7355 17.775 18.816 18.507C17.4735 19.575 16.1625 20.688 14.877 21.828C14.277 22.3575 13.839 23.0805 13.2165 23.5725C9.97047 26.136 6.68997 28.653 3.42147 31.1865C3.30908 31.2535 3.20574 31.3347 3.11397 31.428C3.10452 31.4417 3.09648 31.4562 3.08997 31.4715C3.02097 31.632 2.96247 31.8975 3.04347 31.995C3.06333 32.0162 3.08732 32.033 3.11397 32.0445C3.25686 32.1038 3.41588 32.1118 3.56397 32.067C3.76019 31.9652 3.94016 31.8348 4.09797 31.68L13.248 24.588C13.4115 24.4605 13.584 24.345 13.7835 24.201C13.8371 24.7987 14.0587 25.3691 14.4227 25.8463C14.7867 26.3234 15.2782 26.6879 15.8405 26.8976C16.4028 27.1073 17.013 27.1537 17.6005 27.0314C18.1881 26.9091 18.729 26.6231 19.161 26.2065C20.211 25.1955 21.2955 24.2145 22.365 23.22L22.755 22.854C23.409 24.1335 23.343 24.471 22.338 25.2765C16.162 30.2185 9.99047 35.1615 3.82347 40.1055C3.56097 40.3155 3.04197 40.506 3.38247 40.953C3.72297 41.4 4.03647 40.9395 4.29747 40.731C10.0835 36.11 15.8655 31.483 21.6435 26.85C21.7935 26.73 21.951 26.6235 22.1685 26.4645V26.9505C22.1391 27.5121 22.2774 28.0697 22.5659 28.5523C22.8544 29.035 23.28 29.4209 23.7885 29.661C24.2869 29.9142 24.8528 30.0029 25.4048 29.9142C25.9568 29.8255 26.4664 29.5641 26.8605 29.1675C28.05 28.1175 29.2275 27.0465 30.411 25.9875C30.486 25.92 30.573 25.869 30.711 25.764C30.8803 26.795 30.8472 27.8491 30.6135 28.8675C30.5558 29.0029 30.4612 29.1193 30.3405 29.2035C29.3625 30.0485 28.381 30.89 27.396 31.728L12.948 43.992C12.7788 44.1049 12.6293 44.2447 12.5055 44.406C12.4659 44.4796 12.4438 44.5612 12.4407 44.6447C12.4375 44.7281 12.4535 44.8112 12.4875 44.8875C12.5552 44.9383 12.6336 44.9731 12.7167 44.9895C12.7998 45.0059 12.8855 45.0033 12.9675 44.982C13.0322 44.9632 13.0917 44.9299 13.1415 44.8845C13.2165 44.8245 13.2915 44.748 13.359 44.6865L23.8035 35.8365C24.306 35.4105 24.813 34.9905 25.3425 34.5465C25.3693 34.6178 25.3908 34.691 25.407 34.7655C25.4369 35.3445 25.6363 35.9019 25.9803 36.3686C26.3243 36.8352 26.7978 37.1906 27.342 37.3905C27.8796 37.624 28.4753 37.689 29.0506 37.5768C29.6259 37.4646 30.1536 37.1805 30.564 36.762C31.26 36.1275 31.947 35.4825 32.637 34.8405C33.087 34.428 33.522 34.014 33.996 33.5685C34.0843 33.8764 34.1559 34.1889 34.2105 34.5045C34.2794 35.2392 34.1781 35.9798 33.9143 36.669C33.6505 37.3581 33.2314 37.9772 32.6895 38.478C30.951 40.35 29.1735 42.1815 27.411 44.028C27.2955 44.148 27.1365 44.247 27.0735 44.3895C27.0105 44.532 26.97 44.811 27.045 44.871L27.066 44.8845C27.2233 44.961 27.4001 44.9877 27.573 44.961C27.6214 44.9511 27.6646 44.9239 27.6945 44.8845C27.7365 44.841 27.777 44.787 27.8175 44.7465C29.2455 43.2705 30.681 41.802 32.0985 40.3155C32.6706 39.7358 33.2085 39.1233 33.7095 38.481C34.3627 37.7579 34.7958 36.8633 34.9579 35.9024C35.12 34.9416 35.0043 33.9544 34.6245 33.057C34.5836 32.8569 34.6235 32.6488 34.7355 32.478C34.833 32.31 34.941 32.1465 35.052 31.9845C35.4071 31.5234 35.703 31.0194 35.9325 30.4845C36.376 29.1717 37.0568 27.9515 37.941 26.8845C38.3475 26.3691 38.6271 25.7655 38.7574 25.1221C38.8877 24.4788 38.8649 23.8139 38.691 23.181C38.6295 22.9404 38.6295 22.6881 38.691 22.4475C39.45 20.097 40.2315 17.754 41.0055 15.4095C41.3525 14.3595 41.6975 13.3125 42.0405 12.2685L42.36 11.298C43.041 11.298 43.683 11.2845 44.322 11.298C44.853 11.313 45.015 11.064 45.009 10.548C44.9775 8.478 44.9895 6.4095 44.9895 4.341ZM18.384 25.8C18.0486 26.1104 17.6235 26.3067 17.1697 26.3606C16.7159 26.4145 16.2567 26.3233 15.858 26.1C15.4611 25.9304 15.1264 25.6421 14.9 25.2747C14.6736 24.9073 14.5665 24.4788 14.5935 24.048C14.6415 23.519 14.8612 23.0201 15.219 22.6275C17.5445 20.4101 20.0641 18.4056 22.7475 16.638C22.8939 16.5345 23.0605 16.4629 23.2365 16.428C23.3545 16.4062 23.4755 16.4062 23.5935 16.428C23.7348 16.4555 23.8697 16.5095 23.991 16.587C24.2363 16.7393 24.4345 16.9566 24.5638 17.2148C24.693 17.4729 24.7481 17.7619 24.723 18.0495C24.6919 18.7984 24.4299 19.5193 23.973 20.1135C22.3394 22.2216 20.4635 24.1302 18.384 25.8ZM26.184 28.6935C25.9232 28.9617 25.5807 29.1355 25.2103 29.1876C24.8399 29.2398 24.4626 29.1673 24.138 28.9815C23.7962 28.8038 23.5053 28.542 23.2927 28.2208C23.0802 27.8996 22.9529 27.5295 22.923 27.1455C22.8882 26.8139 22.9307 26.4788 23.0473 26.1665C23.1639 25.8542 23.3514 25.5731 23.595 25.3455C25.8719 23.2454 28.3149 21.3326 30.9 19.626C30.978 19.5765 31.05 19.527 31.1355 19.476C31.3613 19.313 31.6349 19.2297 31.9132 19.2392C32.1915 19.2487 32.4588 19.3505 32.673 19.5285C32.8802 19.704 33.0268 19.9404 33.092 20.204C33.1571 20.4677 33.1375 20.7451 33.036 20.997C32.7089 22.0863 32.1053 23.0723 31.284 23.859C29.6295 25.512 27.909 27.1035 26.187 28.6875L26.184 28.6935ZM35.0505 30.555C34.094 32.1622 32.8965 33.613 31.5 34.857C30.968 35.37 30.4155 35.8605 29.8425 36.3285C29.539 36.5803 29.1741 36.747 28.7851 36.8115C28.3961 36.876 27.997 36.8361 27.6285 36.6957C27.26 36.5553 26.9354 36.3196 26.6879 36.0126C26.4404 35.7056 26.279 35.3384 26.22 34.9485C26.1959 34.7317 26.2151 34.5123 26.2764 34.303C26.3376 34.0937 26.4398 33.8986 26.577 33.729C28.6182 31.5124 30.951 29.5833 33.5115 27.9945C33.5426 27.9824 33.5756 27.9758 33.609 27.975L33.759 28.125C33.339 28.575 32.907 29.004 32.5035 29.4645C32.3821 29.6425 32.2815 29.8337 32.2035 30.0345C32.4255 30.1005 32.685 30.2745 32.865 30.213C33.5895 29.97 34.302 29.688 35.0655 29.388L35.682 29.148C35.451 29.658 35.286 30.123 35.0535 30.549L35.0505 30.555ZM37.11 26.7525C36.5504 27.4648 35.8492 28.0532 35.0505 28.4805C34.8035 28.6185 34.55 28.7475 34.29 28.8675C34.557 27.846 34.824 26.8995 35.0505 25.9425L35.0595 25.9035C35.2817 24.9638 35.7043 24.0832 36.2985 23.322C36.663 22.8435 37.0725 23.034 37.491 23.1375C37.878 23.232 37.9755 23.5155 37.992 23.8875C38.0535 24.9153 37.7413 25.9308 37.113 26.7465L37.11 26.7525ZM40.62 14.0025C39.753 16.6275 38.8755 19.2525 38.0295 21.8805C37.8705 22.374 37.6545 22.464 37.188 22.167L39.4125 12.2775L39.7545 10.7595L41.5545 11.181C41.4315 11.5515 41.313 11.916 41.193 12.2775L40.62 14.0025Z" fill="black"/>
</svg>
