<svg width="48" height="48" viewBox="0 0 48 48" fill="none" xmlns="http://www.w3.org/2000/svg">
<path d="M0.5625 23.9662V47.4037H47.4375V0.528748H0.5625V23.9662ZM38.3363 22.0912C39.459 22.3518 40.4794 22.939 41.2688 23.7787C41.7033 24.2312 42.0811 24.7349 42.3938 25.2787C42.3937 25.3387 40.3688 26.7075 39.135 27.4725C39.09 27.5025 38.91 27.3075 38.7113 27.0112C38.486 26.6226 38.166 26.2974 37.7811 26.0659C37.3962 25.8344 36.9589 25.7042 36.51 25.6875C35.0887 25.59 34.1738 26.3362 34.1813 27.5625C34.1695 27.8678 34.2394 28.1707 34.3838 28.44C34.695 29.0887 35.2762 29.475 37.0988 30.2625C40.455 31.7062 41.8912 32.6587 42.7837 34.0125C43.7812 35.5125 44.0025 37.935 43.3275 39.7275C42.5775 41.6775 40.74 43.0012 38.1413 43.44C36.9543 43.5759 35.7551 43.5633 34.5713 43.4025C32.7569 43.1034 31.0856 42.2323 29.8013 40.9162C29.37 40.44 28.53 39.1987 28.5825 39.1087C28.7194 39.0071 28.8635 38.9156 29.0138 38.835L30.75 37.875L32.0962 37.095L32.3775 37.5112C32.8521 38.1902 33.4562 38.7688 34.155 39.2137C35.655 40.0012 37.7025 39.8925 38.715 38.9812C39.0549 38.6473 39.267 38.2048 39.3143 37.7306C39.3616 37.2564 39.2411 36.7807 38.9738 36.3862C38.5988 35.865 37.8487 35.4262 35.7525 34.5112C33.3337 33.4687 32.2913 32.8237 31.3387 31.7962C30.7441 31.1182 30.3051 30.3182 30.0525 29.4525C29.8641 28.4634 29.8362 27.4504 29.97 26.4525C30.4688 24.1162 32.22 22.485 34.7775 22.0012C35.9619 21.8547 37.1616 21.8876 38.3363 22.0987V22.0912ZM27.3337 24.0562V25.9762H21.2475V43.3125H16.9313V25.9725H10.83V24.0975C10.811 23.4509 10.826 22.8038 10.875 22.1587C10.905 22.125 14.625 22.125 19.125 22.125H27.3113L27.3337 24.0562Z" fill="#007ACC"/>
</svg>
