<svg width="54" height="61" viewBox="0 0 54 61" fill="none" xmlns="http://www.w3.org/2000/svg">
<path d="M2.18579 0C1.01127 0 0.0895955 1.0073 0.193653 2.17719L4.74014 53.2921C4.81385 54.1209 5.39299 54.8175 6.19439 55.0413L26.1438 60.6116C26.4958 60.7099 26.868 60.7099 27.22 60.6115L47.2309 55.0191C48.032 54.7953 48.6109 54.0989 48.6847 53.2704L53.2347 2.1774C53.3389 1.00743 52.4171 0 51.2425 0H2.18579ZM43.3266 12.525L41.7079 30.7372L41.7128 30.8355L41.706 31.0616V31.0597L40.556 43.7939L40.4293 44.9253L26.7143 48.7241L26.7036 48.7338L13.0123 44.9136L12.0853 34.3854H18.7991L19.2755 39.7389L26.7162 41.7584L26.7143 41.7623V41.7613L34.1826 39.7132L34.9718 30.9953H19.3596L19.2257 29.5216L18.9205 26.069L18.7605 24.2151H35.5652L36.1765 17.4349H10.5813L10.4473 15.9621L10.1426 12.5085L9.98207 10.6546H43.4866L43.3266 12.525Z" fill="#1572B6"/>
</svg>
