<svg width="53" height="61" viewBox="0 0 53 61" fill="none" xmlns="http://www.w3.org/2000/svg">
<path d="M2.18184 0C1.00876 0 0.0875662 1.00496 0.189396 2.17361L4.64724 53.3343C4.71937 54.162 5.29572 54.8589 6.09519 55.0851L25.6151 60.6081C25.9705 60.7087 26.3467 60.7089 26.7022 60.6087L46.2793 55.091C47.0796 54.8654 47.6569 54.1681 47.7292 53.3397L52.1914 2.17376C52.2933 1.00505 51.3721 0 50.1989 0H2.18184ZM42.4657 12.9529L42.1669 16.4534L42.0354 18.0586H16.9422L17.5412 24.8916H41.4389L41.2788 26.5857L39.7384 44.2143L39.625 45.3223L26.1905 49.1043V49.1053L26.1743 49.1141L12.7488 45.4911L11.8374 35.1411H18.4198L18.8862 40.4704L26.17 42.4622H26.1905V42.1957L33.5066 40.3044L34.2709 31.7246H11.5443L9.93244 13.1208L9.77569 11.2256H42.6229L42.4657 12.9529Z" fill="#E44D26"/>
</svg>
