<svg width="62" height="62" viewBox="0 0 62 62" fill="none" xmlns="http://www.w3.org/2000/svg">
<path d="M0 6C0 2.68629 2.68629 0 6 0H55.1182C58.4319 0 61.1182 2.68629 61.1182 6V55.1187C61.1182 58.4324 58.4319 61.1187 55.1182 61.1187H6C2.68629 61.1187 0 58.4324 0 55.1187V6Z" fill="#F0DB4F"/>
<path d="M56.1163 46.5417C55.6686 43.7534 53.8504 41.4114 48.4648 39.2276C46.5939 38.3678 44.5082 37.7521 43.8867 36.3343C43.666 35.5092 43.6367 35.0444 43.7763 34.545C44.1772 32.9241 46.112 32.4188 47.6455 32.8835C48.6332 33.2146 49.5682 33.9757 50.1321 35.1899C52.7695 33.4821 52.7641 33.4933 54.6057 32.3196C53.9314 31.2744 53.5716 30.792 53.1303 30.3448C51.544 28.573 49.3826 27.6605 45.926 27.7303L44.1254 27.9632C42.4 28.3992 40.7557 29.3048 39.7914 30.5191C36.8982 33.8019 37.7233 39.5474 41.2439 41.9118C44.7123 44.5151 49.8074 45.1073 50.4582 47.5416C51.0914 50.5217 48.268 51.4865 45.4617 51.1437C43.3936 50.7136 42.2433 49.6624 40.9998 47.751C38.711 49.0756 38.711 49.0756 36.3577 50.4289C36.9158 51.649 37.5021 52.2012 38.4376 53.2582C42.8648 57.7489 53.9436 57.5283 55.9307 50.7312C56.0113 50.4978 56.5464 48.9413 56.1163 46.5417ZM33.2257 28.0901H27.5091L27.4857 42.8697C27.4857 46.0129 27.6482 48.8945 27.1371 49.7777C26.3007 51.5148 24.1335 51.2995 23.1458 50.9626C22.1406 50.4685 21.6294 49.7659 21.0372 48.7729C20.8746 48.4878 20.7525 48.2671 20.7115 48.25L16.0636 51.0964C16.8365 52.6826 17.975 54.0594 19.4333 54.9538C21.6118 56.2613 24.5397 56.6621 27.6019 55.9591C29.5948 55.3786 31.3143 54.1761 32.2146 52.3457C33.5162 49.9461 33.237 47.0416 33.2253 43.8291C33.2545 38.588 33.2257 33.3478 33.2257 28.0901Z" fill="#323330"/>
</svg>
