<svg width="61" height="61" viewBox="0 0 61 61" fill="none" xmlns="http://www.w3.org/2000/svg">
<path d="M30.381 0C22.3234 0 14.5959 3.20084 8.89838 8.89838C3.20084 14.5959 0 22.3234 0 30.381C0 38.4385 3.20084 46.166 8.89838 51.8635C14.5959 57.5611 22.3234 60.7619 30.381 60.7619C36.3844 60.75 42.2498 58.9598 47.2367 55.6171L22.3177 23.4218V42.5229H18.2286V18.2286H23.3402L50.4575 53.1591C53.6927 50.3106 56.2847 46.8063 58.0613 42.8791C59.8379 38.9518 60.7585 34.6914 60.7619 30.381C60.7619 22.3234 57.5611 14.5959 51.8635 8.89838C46.166 3.20084 38.4385 0 30.381 0ZM38.8197 18.2286H42.8708V41.3827L38.8197 36.0631V18.2286ZM50.298 53.3186L50.2453 53.3641C50.2629 53.349 50.2805 53.3338 50.298 53.3186Z" fill="white"/>
</svg>
