<svg width="70" height="63" viewBox="0 0 70 63" fill="none" xmlns="http://www.w3.org/2000/svg">
<path d="M34.8982 37.5183C38.4081 37.5183 41.2534 34.673 41.2534 31.1631C41.2534 27.6531 38.4081 24.8078 34.8982 24.8078C31.3883 24.8078 28.5429 27.6531 28.5429 31.1631C28.5429 34.673 31.3883 37.5183 34.8982 37.5183Z" fill="#61DAFB"/>
<path d="M59.037 20.6825C57.8106 20.2365 56.5283 19.7905 55.1904 19.4003C55.5249 18.0623 55.8036 16.7244 56.0266 15.4422C57.1973 8.08344 55.9151 2.89889 52.3473 0.891966C51.288 0.278739 50.1173 0 48.7794 0C44.877 0 39.9155 2.89889 34.8982 7.74896C29.8809 2.89889 24.9193 0 21.0169 0C19.679 0 18.5083 0.278739 17.4491 0.891966C13.8812 2.95464 12.599 8.13919 13.7697 15.4422C13.9927 16.7244 14.2715 18.0623 14.6059 19.4003C13.268 19.7905 11.9858 20.1807 10.7593 20.6825C3.79086 23.3584 0 27.0377 0 31.1631C0 35.2884 3.8466 38.9678 10.7593 41.6437C11.9858 42.0897 13.268 42.5356 14.6059 42.9259C14.2715 44.2638 13.9927 45.6018 13.7697 46.884C12.599 54.2427 13.8812 59.4272 17.4491 61.4342C18.5083 62.0474 19.679 62.3261 21.0169 62.3261C24.975 62.3261 29.9366 59.4272 34.8982 54.5772C39.9155 59.4272 44.877 62.3261 48.7794 62.3261C50.1173 62.3261 51.288 62.0474 52.3473 61.4342C55.9151 59.3715 57.1973 54.1869 56.0266 46.884C55.8036 45.6018 55.5249 44.2638 55.1904 42.9259C56.5283 42.5356 57.8106 42.1454 59.037 41.6437C66.0055 38.9678 69.7963 35.2884 69.7963 31.1631C69.7963 27.0377 66.0055 23.3584 59.037 20.6825ZM50.7863 3.67936C53.072 5.01731 53.8525 9.14265 52.9047 14.9962C52.7375 16.1669 52.4588 17.3933 52.1243 18.6755C49.2254 18.0066 46.1592 17.5606 42.9259 17.2818C41.0304 14.6059 39.0793 12.2088 37.1281 10.0346C41.2534 5.96502 45.4345 3.17763 48.8351 3.17763C49.5599 3.17763 50.2288 3.34487 50.7863 3.67936ZM44.5426 36.7379C43.5391 38.5218 42.3684 40.3057 41.1419 42.0897C39.0793 42.2569 37.0166 42.3126 34.8982 42.3126C32.724 42.3126 30.6613 42.2569 28.6544 42.0897C27.428 40.3057 26.313 38.5218 25.3095 36.7379C24.2503 34.8982 23.2469 33.0027 22.3549 31.1631C23.2469 29.3234 24.2503 27.428 25.3095 25.5883C26.313 23.8043 27.4837 22.0204 28.7102 20.2365C30.7728 20.0692 32.8355 20.0135 34.9539 20.0135C37.1281 20.0135 39.1908 20.0692 41.1977 20.2365C42.4241 22.0204 43.5391 23.8043 44.5426 25.5883C45.6018 27.428 46.6052 29.3234 47.4972 31.1631C46.5495 33.0027 45.6018 34.8424 44.5426 36.7379ZM49.1696 34.8982C50.0058 36.8493 50.6748 38.7448 51.288 40.6402C49.3926 41.0862 47.3857 41.4207 45.2673 41.6994C45.9362 40.6402 46.661 39.5253 47.2742 38.3545C47.9432 37.1838 48.5564 36.0131 49.1696 34.8982ZM34.8982 50.0059C33.5602 48.5564 32.278 46.9955 31.0516 45.3788C32.3338 45.4345 33.616 45.4903 34.8982 45.4903C36.1804 45.4903 37.4626 45.4345 38.7448 45.3788C37.5183 46.9955 36.2361 48.5564 34.8982 50.0059ZM24.5291 41.6437C22.4106 41.3649 20.4037 41.0304 18.5083 40.5845C19.1215 38.7448 19.7905 36.7936 20.6267 34.8424C21.2399 35.9574 21.8532 37.1281 22.5221 38.243C23.1911 39.4695 23.8601 40.5287 24.5291 41.6437ZM20.6267 27.428C19.7905 25.4768 19.1215 23.5814 18.5083 21.6859C20.4037 21.2399 22.4106 20.9055 24.5291 20.6267C23.8601 21.6859 23.1354 22.8009 22.5221 23.9716C21.8532 25.1423 21.2399 26.313 20.6267 27.428ZM34.8982 12.3203C36.2361 13.7697 37.5183 15.3307 38.7448 16.9474C37.4626 16.8916 36.1804 16.8359 34.8982 16.8359C33.616 16.8359 32.3338 16.8916 31.0516 16.9474C32.278 15.3307 33.5602 13.7697 34.8982 12.3203ZM47.2742 24.0273L45.2673 20.6825C47.3857 20.9612 49.3926 21.2957 51.288 21.7417C50.6748 23.5814 50.0058 25.5325 49.1696 27.4837C48.5564 26.313 47.9432 25.1423 47.2742 24.0273ZM16.8916 14.9962C15.9439 9.14265 16.7244 5.01731 19.01 3.67936C19.5675 3.34487 20.2365 3.17763 20.9612 3.17763C24.3061 3.17763 28.4872 5.90928 32.6683 10.0346C30.7171 12.153 28.7659 14.6059 26.8705 17.2818C23.6371 17.5606 20.571 18.0623 17.6721 18.6755C17.3376 17.3933 17.1146 16.1669 16.8916 14.9962ZM3.12188 31.1631C3.12188 28.5429 6.29951 25.7555 11.8743 23.6929C12.9893 23.2469 14.2157 22.8566 15.4422 22.5221C16.3341 25.3095 17.4491 28.2642 18.787 31.2188C17.4491 34.1735 16.2784 37.0723 15.4422 39.8597C7.74896 37.6298 3.12188 34.285 3.12188 31.1631ZM19.01 58.6468C16.7244 57.3088 15.9439 53.1835 16.8916 47.33C17.0589 46.1592 17.3376 44.9328 17.6721 43.6506C20.571 44.3196 23.6371 44.7656 26.8705 45.0443C28.7659 47.7202 30.7171 50.1174 32.6683 52.2915C28.5429 56.3611 24.3618 59.1485 20.9612 59.1485C20.2365 59.1485 19.5675 58.9813 19.01 58.6468ZM52.9047 47.33C53.8525 53.1835 53.072 57.3088 50.7863 58.6468C50.2288 58.9813 49.5599 59.1485 48.8351 59.1485C45.4903 59.1485 41.3092 56.4169 37.1281 52.2915C39.0793 50.1731 41.0304 47.7202 42.9259 45.0443C46.1592 44.7656 49.2254 44.2638 52.1243 43.6506C52.4588 44.9328 52.6817 46.1592 52.9047 47.33ZM57.922 38.6333C56.8071 39.0793 55.5806 39.4695 54.3542 39.804C53.4622 37.0166 52.3473 34.062 51.0093 31.1073C52.3473 28.1527 53.518 25.2538 54.3542 22.4664C62.0474 24.6963 66.6745 28.0412 66.6745 31.1631C66.6745 33.7832 63.4411 36.5706 57.922 38.6333Z" fill="#61DAFB"/>
</svg>
