<svg width="62" height="62" viewBox="0 0 62 62" fill="none" xmlns="http://www.w3.org/2000/svg">
<path d="M0 30.5142V55.0283C0 58.3421 2.68629 61.0283 6 61.0283H55.0283C58.3421 61.0283 61.0283 58.3421 61.0283 55.0283V6C61.0283 2.68629 58.3421 0 55.0283 0H6C2.68629 0 0 2.68629 0 6V30.5142ZM49.1791 28.073C50.6408 28.4122 51.9693 29.1767 52.997 30.2701C53.5628 30.8591 54.0547 31.5149 54.4617 32.223C54.4617 32.3011 51.8253 34.0831 50.219 35.0791C50.1604 35.1182 49.9261 34.8643 49.6673 34.4786C49.3741 33.9726 48.9575 33.5492 48.4563 33.2478C47.9551 32.9464 47.3858 32.7769 46.8014 32.7551C44.951 32.6282 43.7598 33.5998 43.7695 35.1963C43.7542 35.5938 43.8452 35.9881 44.0332 36.3387C44.4384 37.1833 45.1952 37.6862 47.5679 38.7115C51.9376 40.5912 53.8075 41.8313 54.9695 43.5938C56.2681 45.5467 56.5562 48.7006 55.6774 51.0343C54.7009 53.5731 52.3086 55.2966 48.9252 55.8678C47.3799 56.0448 45.8185 56.0284 44.2773 55.819C41.9151 55.4296 39.7391 54.2954 38.067 52.582C37.5056 51.962 36.412 50.3459 36.4803 50.2288C36.6585 50.0965 36.8462 49.9773 37.0418 49.8724L39.3023 48.6225L41.055 47.607L41.4212 48.1489C42.0391 49.0329 42.8256 49.7862 43.7354 50.3655C45.6883 51.3908 48.354 51.2492 49.6722 50.0628C50.1148 49.628 50.3909 49.0518 50.4524 48.4345C50.514 47.8172 50.3571 47.1978 50.0091 46.6842C49.5208 46.0056 48.5444 45.4344 45.8152 44.2431C42.6661 42.8858 41.3089 42.0461 40.0688 40.7083C39.2946 39.8256 38.723 38.7841 38.3942 37.6569C38.1488 36.3692 38.1126 35.0504 38.2867 33.7511C38.9361 30.7095 41.2161 28.5857 44.5458 27.9559C46.0878 27.7651 47.6498 27.8079 49.1791 28.0828V28.073ZM34.8545 30.6313V33.1311H26.9306V55.7018H21.3111V33.1262H13.3676V30.6851C13.3429 29.8432 13.3625 29.0007 13.4262 28.1609C13.4653 28.117 18.3085 28.117 24.1672 28.117H34.8252L34.8545 30.6313Z" fill="#007ACC"/>
</svg>
